<?xml version="1.0" encoding="UTF-8"?>
<!-- MÉRIDIEN — asset generato da tools/generate-assets. Non modificare a mano. -->
<svg xmlns="http://www.w3.org/2000/svg" xmlns:xlink="http://www.w3.org/1999/xlink" width="1920" height="1080" viewBox="0 0 1920 1080" preserveAspectRatio="xMidYMid slice">
<title>Il quadro elettrico — livello 2 (principale)</title>
<defs><linearGradient id="quadro-l2-lamiera" x1="0%" y1="0%" x2="0%" y2="100%"><stop offset="0%" stop-color="#374c62"/><stop offset="100%" stop-color="#23303e"/></linearGradient></defs>
<g><rect x="0" y="800" width="1920" height="280" fill="#212734"/><path d="M 820 800 L 1120 800 L 1420 1080 L 560 1080 Z" fill="rgba(11,18,32,0.55)"/><g transform="translate(640 300)"><rect x="0" y="0" width="640" height="500" fill="url(#quadro-l2-lamiera)"/><rect x="0" y="0" width="640" height="500" fill="none" stroke="rgba(201,162,39,0.5)" stroke-width="4"/><g transform="translate(70 300)"><rect x="-14" y="0" width="28" height="120" rx="6" fill="#3c414d"/><rect x="-8" y="60" width="16" height="52" rx="6" fill="#1E5E58"/></g><g transform="translate(166 300)"><rect x="-14" y="0" width="28" height="120" rx="6" fill="#3c414d"/><rect x="-8" y="10" width="16" height="52" rx="6" fill="#B5261E"/></g><g transform="translate(262 300)"><rect x="-14" y="0" width="28" height="120" rx="6" fill="#3c414d"/><rect x="-8" y="60" width="16" height="52" rx="6" fill="#1E5E58"/></g><g transform="translate(358 300)"><rect x="-14" y="0" width="28" height="120" rx="6" fill="#3c414d"/><rect x="-8" y="10" width="16" height="52" rx="6" fill="#B5261E"/></g><g transform="translate(454 300)"><rect x="-14" y="0" width="28" height="120" rx="6" fill="#3c414d"/><rect x="-8" y="60" width="16" height="52" rx="6" fill="#1E5E58"/></g><g transform="translate(550 300)"><rect x="-14" y="0" width="28" height="120" rx="6" fill="#3c414d"/><rect x="-8" y="10" width="16" height="52" rx="6" fill="#B5261E"/></g><circle cx="60" cy="460" r="12" fill="rgba(181,38,30,0.9)"/><circle cx="220" cy="460" r="12" fill="rgba(30,94,88,0.8)"/><circle cx="380" cy="460" r="12" fill="rgba(30,94,88,0.8)"/><circle cx="540" cy="460" r="12" fill="rgba(181,38,30,0.9)"/><circle cx="60" cy="460" r="12" fill="rgba(30,94,88,0.8)"/><circle cx="220" cy="460" r="12" fill="rgba(30,94,88,0.8)"/><circle cx="380" cy="460" r="12" fill="rgba(181,38,30,0.9)"/><circle cx="540" cy="460" r="12" fill="rgba(30,94,88,0.8)"/></g><g><circle cx="720" cy="380" r="45" fill="#796117"/><circle cx="720" cy="380" r="40" fill="#d0c8ba"/><path d="M 690 388 A 31.2 31.2 0 0 1 750 388" fill="none" stroke="rgba(11,18,32,0.4)" stroke-width="2"/><line x1="720" y1="388" x2="695.052" y2="375.288" stroke="#B5261E" stroke-width="3"/><circle cx="720" cy="388" r="3.5" fill="#0B1220"/><circle cx="850" cy="380" r="45" fill="#796117"/><circle cx="850" cy="380" r="40" fill="#d0c8ba"/><path d="M 820 388 A 31.2 31.2 0 0 1 880 388" fill="none" stroke="rgba(11,18,32,0.4)" stroke-width="2"/><line x1="850" y1="388" x2="842.104" y2="361.136" stroke="#B5261E" stroke-width="3"/><circle cx="850" cy="388" r="3.5" fill="#0B1220"/><circle cx="980" cy="380" r="45" fill="#796117"/><circle cx="980" cy="380" r="40" fill="#d0c8ba"/><path d="M 950 388 A 31.2 31.2 0 0 1 1010 388" fill="none" stroke="rgba(11,18,32,0.4)" stroke-width="2"/><line x1="980" y1="388" x2="994.101" y2="363.81" stroke="#B5261E" stroke-width="3"/><circle cx="980" cy="388" r="3.5" fill="#0B1220"/><circle cx="1110" cy="380" r="45" fill="#796117"/><circle cx="1110" cy="380" r="40" fill="#d0c8ba"/><path d="M 1080 388 A 31.2 31.2 0 0 1 1140 388" fill="none" stroke="rgba(11,18,32,0.4)" stroke-width="2"/><line x1="1110" y1="388" x2="1088.823" y2="369.682" stroke="#B5261E" stroke-width="3"/><circle cx="1110" cy="388" r="3.5" fill="#0B1220"/><circle cx="1240" cy="380" r="45" fill="#796117"/><circle cx="1240" cy="380" r="40" fill="#d0c8ba"/><path d="M 1210 388 A 31.2 31.2 0 0 1 1270 388" fill="none" stroke="rgba(11,18,32,0.4)" stroke-width="2"/><line x1="1240" y1="388" x2="1238.769" y2="360.027" stroke="#B5261E" stroke-width="3"/><circle cx="1240" cy="388" r="3.5" fill="#0B1220"/></g><g transform="translate(330 400)"><rect x="0" y="0" width="220" height="300" fill="#311f36"/><rect x="14" y="14" width="192" height="272" fill="rgba(11,18,32,0.55)"/><rect x="30" y="34" width="64" height="40" fill="rgba(201,162,39,0.7)"/><rect x="126" y="34" width="64" height="40" fill="rgba(205,194,174,0.7)"/><rect x="30" y="96" width="64" height="40" fill="rgba(205,194,174,0.7)"/><rect x="126" y="96" width="64" height="40" fill="rgba(201,162,39,0.7)"/><rect x="30" y="158" width="64" height="40" fill="rgba(205,194,174,0.7)"/><rect x="126" y="158" width="64" height="40" fill="rgba(205,194,174,0.7)"/><rect x="30" y="220" width="64" height="40" fill="rgba(201,162,39,0.7)"/><rect x="126" y="220" width="64" height="40" fill="rgba(205,194,174,0.7)"/></g><g><rect x="1682" y="450" width="226" height="390" fill="rgba(201,162,39,0.3)"/><rect x="1690" y="460" width="210" height="380" fill="#293949"/><rect x="1715.2" y="490.4" width="159.6" height="136.8" fill="rgba(11,18,32,0.3)"/><rect x="1715.2" y="657.6" width="159.6" height="144.4" fill="rgba(11,18,32,0.3)"/><circle cx="1874.8" cy="665.2" r="6" fill="#E0C365"/></g><g transform="translate(1180 950) rotate(-16)"><rect x="0" y="0" width="120" height="30" rx="8" fill="#4a505a"/><path d="M 120 -8 L 160 -20 L 160 50 L 120 38 Z" fill="#C9A227"/><circle cx="152" cy="15" r="22" fill="rgba(224,195,101,0.6)"/></g></g>
</svg>
