<?xml version="1.0" encoding="UTF-8"?>
<!-- MÉRIDIEN — asset generato da tools/generate-assets. Non modificare a mano. -->
<svg xmlns="http://www.w3.org/2000/svg" xmlns:xlink="http://www.w3.org/1999/xlink" width="1920" height="1080" viewBox="0 0 1920 1080" preserveAspectRatio="xMidYMid slice">
<title>Il camerino — livello 1 (medio)</title>
<defs><linearGradient id="camerino-l1-specchio-vetro" x1="0%" y1="0%" x2="60%" y2="100%"><stop offset="0%" stop-color="rgba(242,233,216,0.22)"/><stop offset="50%" stop-color="rgba(92,127,163,0.18)"/><stop offset="100%" stop-color="rgba(11,18,32,0.5)"/></linearGradient><radialGradient id="camerino-l1-specchio-alone" cx="50%" cy="50%" r="50%"><stop offset="0%" stop-color="#E0C365" stop-opacity="0.55"/><stop offset="50%" stop-color="#E0C365" stop-opacity="0.193"/><stop offset="100%" stop-color="#E0C365" stop-opacity="0"/></radialGradient><radialGradient id="camerino-l1-applique" cx="50%" cy="50%" r="50%"><stop offset="0%" stop-color="#E0C365" stop-opacity="0.45"/><stop offset="50%" stop-color="#E0C365" stop-opacity="0.158"/><stop offset="100%" stop-color="#E0C365" stop-opacity="0"/></radialGradient></defs>
<g><g><rect x="336" y="176" width="588" height="508" fill="#301e34"/><rect x="380" y="220" width="500" height="420" fill="url(#camerino-l1-specchio-vetro)"/><rect x="380" y="220" width="500" height="420" fill="none" stroke="rgba(201,162,39,0.6)" stroke-width="3"/><g><circle cx="380" cy="198" r="26" fill="url(#camerino-l1-specchio-alone)"/><circle cx="380" cy="198" r="9" fill="#E0C365"/><circle cx="377.5" cy="195.5" r="3.2" fill="rgba(255,255,255,0.85)"/><circle cx="380" cy="662" r="26" fill="url(#camerino-l1-specchio-alone)"/><circle cx="380" cy="662" r="9" fill="#E0C365"/><circle cx="377.5" cy="659.5" r="3.2" fill="rgba(255,255,255,0.85)"/><circle cx="442.5" cy="198" r="26" fill="url(#camerino-l1-specchio-alone)"/><circle cx="442.5" cy="198" r="9" fill="#E0C365"/><circle cx="440" cy="195.5" r="3.2" fill="rgba(255,255,255,0.85)"/><circle cx="442.5" cy="662" r="26" fill="url(#camerino-l1-specchio-alone)"/><circle cx="442.5" cy="662" r="9" fill="#E0C365"/><circle cx="440" cy="659.5" r="3.2" fill="rgba(255,255,255,0.85)"/><circle cx="505" cy="198" r="26" fill="url(#camerino-l1-specchio-alone)"/><circle cx="505" cy="198" r="9" fill="#E0C365"/><circle cx="502.5" cy="195.5" r="3.2" fill="rgba(255,255,255,0.85)"/><circle cx="505" cy="662" r="26" fill="url(#camerino-l1-specchio-alone)"/><circle cx="505" cy="662" r="9" fill="#E0C365"/><circle cx="502.5" cy="659.5" r="3.2" fill="rgba(255,255,255,0.85)"/><circle cx="567.5" cy="198" r="26" fill="url(#camerino-l1-specchio-alone)"/><circle cx="567.5" cy="198" r="9" fill="#E0C365"/><circle cx="565" cy="195.5" r="3.2" fill="rgba(255,255,255,0.85)"/><circle cx="567.5" cy="662" r="26" fill="url(#camerino-l1-specchio-alone)"/><circle cx="567.5" cy="662" r="9" fill="#E0C365"/><circle cx="565" cy="659.5" r="3.2" fill="rgba(255,255,255,0.85)"/><circle cx="630" cy="198" r="26" fill="url(#camerino-l1-specchio-alone)"/><circle cx="630" cy="198" r="9" fill="#E0C365"/><circle cx="627.5" cy="195.5" r="3.2" fill="rgba(255,255,255,0.85)"/><circle cx="630" cy="662" r="26" fill="url(#camerino-l1-specchio-alone)"/><circle cx="630" cy="662" r="9" fill="#E0C365"/><circle cx="627.5" cy="659.5" r="3.2" fill="rgba(255,255,255,0.85)"/><circle cx="692.5" cy="198" r="26" fill="url(#camerino-l1-specchio-alone)"/><circle cx="692.5" cy="198" r="9" fill="#E0C365"/><circle cx="690" cy="195.5" r="3.2" fill="rgba(255,255,255,0.85)"/><circle cx="692.5" cy="662" r="26" fill="url(#camerino-l1-specchio-alone)"/><circle cx="692.5" cy="662" r="9" fill="#E0C365"/><circle cx="690" cy="659.5" r="3.2" fill="rgba(255,255,255,0.85)"/><circle cx="755" cy="198" r="26" fill="url(#camerino-l1-specchio-alone)"/><circle cx="755" cy="198" r="9" fill="#E0C365"/><circle cx="752.5" cy="195.5" r="3.2" fill="rgba(255,255,255,0.85)"/><circle cx="755" cy="662" r="26" fill="url(#camerino-l1-specchio-alone)"/><circle cx="755" cy="662" r="9" fill="#E0C365"/><circle cx="752.5" cy="659.5" r="3.2" fill="rgba(255,255,255,0.85)"/><circle cx="817.5" cy="198" r="26" fill="url(#camerino-l1-specchio-alone)"/><circle cx="817.5" cy="198" r="9" fill="#E0C365"/><circle cx="815" cy="195.5" r="3.2" fill="rgba(255,255,255,0.85)"/><circle cx="817.5" cy="662" r="26" fill="url(#camerino-l1-specchio-alone)"/><circle cx="817.5" cy="662" r="9" fill="#E0C365"/><circle cx="815" cy="659.5" r="3.2" fill="rgba(255,255,255,0.85)"/><circle cx="880" cy="198" r="26" fill="url(#camerino-l1-specchio-alone)"/><circle cx="880" cy="198" r="9" fill="#E0C365"/><circle cx="877.5" cy="195.5" r="3.2" fill="rgba(255,255,255,0.85)"/><circle cx="880" cy="662" r="26" fill="url(#camerino-l1-specchio-alone)"/><circle cx="880" cy="662" r="9" fill="#E0C365"/><circle cx="877.5" cy="659.5" r="3.2" fill="rgba(255,255,255,0.85)"/><circle cx="358" cy="304" r="26" fill="url(#camerino-l1-specchio-alone)"/><circle cx="358" cy="304" r="9" fill="#E0C365"/><circle cx="355.5" cy="301.5" r="3.2" fill="rgba(255,255,255,0.85)"/><circle cx="902" cy="304" r="26" fill="url(#camerino-l1-specchio-alone)"/><circle cx="902" cy="304" r="9" fill="#E0C365"/><circle cx="899.5" cy="301.5" r="3.2" fill="rgba(255,255,255,0.85)"/><circle cx="358" cy="388" r="26" fill="url(#camerino-l1-specchio-alone)"/><circle cx="358" cy="388" r="9" fill="#E0C365"/><circle cx="355.5" cy="385.5" r="3.2" fill="rgba(255,255,255,0.85)"/><circle cx="902" cy="388" r="26" fill="url(#camerino-l1-specchio-alone)"/><circle cx="902" cy="388" r="9" fill="#E0C365"/><circle cx="899.5" cy="385.5" r="3.2" fill="rgba(255,255,255,0.85)"/><circle cx="358" cy="472" r="26" fill="url(#camerino-l1-specchio-alone)"/><circle cx="358" cy="472" r="9" fill="#E0C365"/><circle cx="355.5" cy="469.5" r="3.2" fill="rgba(255,255,255,0.85)"/><circle cx="902" cy="472" r="26" fill="url(#camerino-l1-specchio-alone)"/><circle cx="902" cy="472" r="9" fill="#E0C365"/><circle cx="899.5" cy="469.5" r="3.2" fill="rgba(255,255,255,0.85)"/><circle cx="358" cy="556" r="26" fill="url(#camerino-l1-specchio-alone)"/><circle cx="358" cy="556" r="9" fill="#E0C365"/><circle cx="355.5" cy="553.5" r="3.2" fill="rgba(255,255,255,0.85)"/><circle cx="902" cy="556" r="26" fill="url(#camerino-l1-specchio-alone)"/><circle cx="902" cy="556" r="9" fill="#E0C365"/><circle cx="899.5" cy="553.5" r="3.2" fill="rgba(255,255,255,0.85)"/></g></g><circle cx="1580" cy="380" r="150" fill="url(#camerino-l1-applique)"/><path d="M 1560 350 L 1600 350 L 1608 358 L 1608 426 L 1600 434 L 1560 434 L 1552 426 L 1552 358 Z" fill="rgba(201,162,39,0.85)"/></g>
</svg>
