<?xml version="1.0" encoding="UTF-8"?>
<!-- MÉRIDIEN — asset generato da tools/generate-assets. Non modificare a mano. -->
<svg xmlns="http://www.w3.org/2000/svg" xmlns:xlink="http://www.w3.org/1999/xlink" width="560" height="800" viewBox="0 0 560 800">
<title>La contessa — carta personaggio</title>
<defs><radialGradient id="fondo-07" cx="50%" cy="34%" r="66%"><stop offset="0%" stop-color="#37404f" stop-opacity="0.95"/><stop offset="100%" stop-color="#0B1220" stop-opacity="0.9"/></radialGradient><linearGradient id="vetro-07" x1="0%" y1="0%" x2="0%" y2="100%"><stop offset="0%" stop-color="#F2E9D8" stop-opacity="0.1"/><stop offset="100%" stop-color="#F2E9D8" stop-opacity="0"/></linearGradient><linearGradient id="ombra-07" x1="15%" y1="0%" x2="100%" y2="90%"><stop offset="0%" stop-color="#111C2E" stop-opacity="0"/><stop offset="45%" stop-color="#111C2E" stop-opacity="0.22"/><stop offset="100%" stop-color="#0B1220" stop-opacity="0.6"/></linearGradient><linearGradient id="chiave-07" x1="0%" y1="0%" x2="75%" y2="85%"><stop offset="0%" stop-color="#E0C365" stop-opacity="0.3"/><stop offset="40%" stop-color="#E0C365" stop-opacity="0.06"/><stop offset="100%" stop-color="#E0C365" stop-opacity="0"/></linearGradient><filter id="grana-07" x="0%" y="0%" width="100%" height="100%"><feTurbulence type="fractalNoise" baseFrequency="0.9" numOctaves="4" seed="0.9" result="rumore"/><feColorMatrix type="saturate" values="0" in="rumore" result="grigio"/><feComponentTransfer in="grigio" result="contrasto"><feFuncA type="linear" slope="0.55" intercept="0"/></feComponentTransfer></filter><linearGradient id="carta-07" x1="0%" y1="0%" x2="40%" y2="100%"><stop offset="0%" stop-color="#323c4b"/><stop offset="60%" stop-color="#111C2E"/><stop offset="100%" stop-color="#0B1220"/></linearGradient><linearGradient id="ottone-07" x1="0%" y1="0%" x2="100%" y2="100%"><stop offset="0%" stop-color="#E0C365"/><stop offset="50%" stop-color="#C9A227"/><stop offset="100%" stop-color="#836919"/></linearGradient><radialGradient id="luce-07" cx="50%" cy="30%" r="60%"><stop offset="0%" stop-color="#E0C365" stop-opacity="0.18"/><stop offset="100%" stop-color="#E0C365" stop-opacity="0"/></radialGradient><filter id="grana-07" x="0%" y="0%" width="100%" height="100%"><feTurbulence type="fractalNoise" baseFrequency="0.9" numOctaves="4" seed="18" result="rumore"/><feColorMatrix type="saturate" values="0" in="rumore" result="grigio"/><feComponentTransfer in="grigio" result="contrasto"><feFuncA type="linear" slope="0.55" intercept="0"/></feComponentTransfer></filter><clipPath id="ritaglio-07"><path d="M 48 30 L 512 30 L 530 48 L 530 752 L 512 770 L 48 770 L 30 752 L 30 48 Z"/></clipPath></defs>
<path d="M 40 8 L 520 8 L 552 40 L 552 760 L 520 792 L 40 792 L 8 760 L 8 40 Z" fill="url(#ottone-07)"/><path d="M 44 18 L 516 18 L 542 44 L 542 756 L 516 782 L 44 782 L 18 756 L 18 44 Z" fill="url(#carta-07)"/><g clip-path="url(#ritaglio-07)"><rect x="0" y="0" width="560" height="800" fill="url(#luce-07)"/><g transform="translate(-20 60) scale(0.94)"><g transform="rotate(-2 300 800)"><g id="busto"><path d="M 229.44 430 L 370.56 430 L 468 522 L 478.08 800 L 121.92 800 L 132 522 Z" fill="#56435b"/><g><circle cx="121.92" cy="497.505" r="52.667" fill="#56435b"/><circle cx="136.166" cy="486.779" r="49.534" fill="#56435b"/><circle cx="150.413" cy="475.709" r="42.209" fill="#56435b"/><circle cx="164.659" cy="480.617" r="43.361" fill="#56435b"/><circle cx="178.906" cy="463.252" r="49.591" fill="#56435b"/><circle cx="193.152" cy="472.325" r="41.896" fill="#56435b"/><circle cx="207.398" cy="452.582" r="40.339" fill="#56435b"/><circle cx="221.645" cy="463.768" r="46.4" fill="#56435b"/><circle cx="235.891" cy="451.462" r="54.538" fill="#56435b"/><circle cx="250.138" cy="440.031" r="53.662" fill="#56435b"/><circle cx="264.384" cy="443.092" r="35.587" fill="#56435b"/><circle cx="278.63" cy="438.603" r="49.182" fill="#56435b"/><circle cx="292.877" cy="453.148" r="54.97" fill="#56435b"/><circle cx="307.123" cy="460.536" r="48.004" fill="#56435b"/><circle cx="321.37" cy="446.649" r="38.353" fill="#56435b"/><circle cx="335.616" cy="456.375" r="37.92" fill="#56435b"/><circle cx="349.862" cy="454.648" r="55.865" fill="#56435b"/><circle cx="364.109" cy="468.731" r="38.56" fill="#56435b"/><circle cx="378.355" cy="455.378" r="55.907" fill="#56435b"/><circle cx="392.602" cy="473.922" r="39.895" fill="#56435b"/><circle cx="406.848" cy="478.631" r="36.844" fill="#56435b"/><circle cx="421.094" cy="468.398" r="45.568" fill="#56435b"/><circle cx="435.341" cy="467.287" r="34.296" fill="#56435b"/><circle cx="449.587" cy="472.039" r="47.218" fill="#56435b"/><circle cx="463.834" cy="496.866" r="51.915" fill="#56435b"/><circle cx="478.08" cy="486.892" r="43.357" fill="#56435b"/></g><path d="M 240 470 L 360 470 L 340 800 L 260 800 Z" fill="#382c3b"/><rect x="118.56" y="670" width="362.88" height="12" fill="rgba(11,18,32,0.03)"/><rect x="118.56" y="681" width="362.88" height="12" fill="rgba(11,18,32,0.052)"/><rect x="118.56" y="692" width="362.88" height="12" fill="rgba(11,18,32,0.074)"/><rect x="118.56" y="703" width="362.88" height="12" fill="rgba(11,18,32,0.096)"/><rect x="118.56" y="714" width="362.88" height="12" fill="rgba(11,18,32,0.118)"/><rect x="118.56" y="725" width="362.88" height="12" fill="rgba(11,18,32,0.14)"/><rect x="118.56" y="736" width="362.88" height="12" fill="rgba(11,18,32,0.162)"/><rect x="118.56" y="747" width="362.88" height="12" fill="rgba(11,18,32,0.184)"/><rect x="118.56" y="758" width="362.88" height="12" fill="rgba(11,18,32,0.206)"/><rect x="118.56" y="769" width="362.88" height="12" fill="rgba(11,18,32,0.228)"/><rect x="118.56" y="780" width="362.88" height="12" fill="rgba(11,18,32,0.25)"/><rect x="118.56" y="791" width="362.88" height="12" fill="rgba(11,18,32,0.272)"/></g><g id="testa"><path d="M 270 319.094 L 330 319.094 L 336 430 L 264 430 Z" fill="#c4b4a2"/><ellipse cx="300" cy="246" rx="84.6" ry="101.52" fill="#EFDCC6"/><ellipse cx="384.6" cy="252.091" rx="11.844" ry="18.274" fill="#EFDCC6"/><ellipse cx="335.532" cy="256.152" rx="50.76" ry="83.246" fill="rgba(143,132,119,0.22)"/></g><g id="capelli"><ellipse cx="300" cy="195.24" rx="82.908" ry="52.79" fill="#D8D2C6"/><circle cx="223.86" cy="225.696" r="28.764" fill="#D8D2C6"/><circle cx="223.86" cy="225.696" r="15.228" fill="#97938b"/></g><g id="volto"><path d="M 300 264.274 q 11.844 22.334 1.692 28.426 q -8.46 4.061 -11.844 -3.046" fill="none" stroke="#9b8f81" stroke-width="4.23" stroke-linecap="butt"/><ellipse cx="300" cy="319.094" rx="28.764" ry="14.213" fill="rgba(167,154,139,0.35)"/><path d="M 244.003 223.213 A 25.38 13.198 0 0 1 291.701 223.213" fill="none" stroke="#D8D2C6" stroke-width="5.64" stroke-linecap="butt" transform="rotate(0 267.852 227.726)"/><path d="M 308.299 223.213 A 25.38 13.198 0 0 1 355.997 223.213" fill="none" stroke="#D8D2C6" stroke-width="5.64" stroke-linecap="butt" transform="rotate(0 332.148 227.726)"/><g><path d="M 250.932 252.091 A 16.92 10.49 0 0 1 284.772 252.091" fill="#F2E9D8" stroke="#171e2b" stroke-width="3"/><circle cx="267.852" cy="250.399" r="5.753" fill="#171e2b"/></g><g><path d="M 315.228 252.091 A 16.92 10.49 0 0 1 349.068 252.091" fill="#F2E9D8" stroke="#171e2b" stroke-width="3"/><circle cx="332.148" cy="250.399" r="5.753" fill="#171e2b"/></g><path d="M 271.236 298.79 q 28.764 9.78 57.528 0" fill="none" stroke="#8b2e2a" stroke-width="6" stroke-linecap="butt"/></g><g id="accessorio"><circle cx="267.852" cy="252.091" r="21.996" fill="rgba(242,233,216,0.14)" stroke="#C9A227" stroke-width="4"/><circle cx="332.148" cy="252.091" r="21.996" fill="rgba(242,233,216,0.14)" stroke="#C9A227" stroke-width="4"/><path d="M 289.848 252.091 L 310.152 252.091" stroke="#C9A227" stroke-width="4"/><path d="M 354.144 252.091 q 42.3 60.912 16.92 142.128" fill="none" stroke="rgba(201,162,39,0.8)" stroke-width="3"/><rect x="462" y="520" width="14" height="280" rx="5" fill="#3c414d"/><path d="M 462 526 q -10 -40 34 -34 q 30 6 22 34 Z" fill="#C9A227"/></g><g id="maschera-ballo" display="none"><path d="M 213.708 248.03 q 25.38 -42.638 86.292 -42.638 q 60.912 0 86.292 42.638 q -20.304 50.76 -86.292 50.76 q -65.988 0 -86.292 -50.76 Z" fill="#C9A227"/><ellipse cx="267.852" cy="250.061" rx="20.304" ry="15.228" fill="#101724"/><ellipse cx="332.148" cy="250.061" rx="20.304" ry="15.228" fill="#101724"/><path d="M 213.708 248.03 q 25.38 -42.638 86.292 -42.638 q 60.912 0 86.292 42.638" fill="none" stroke="#C9A227" stroke-width="5"/><path d="M 213.708 250.061 l -42.3 16.243 M 386.292 250.061 l 42.3 16.243" stroke="#C9A227" stroke-width="3" fill="none"/></g></g><mask id="sagoma-07" maskUnits="userSpaceOnUse"><rect x="0" y="0" width="600" height="800" fill="#000000"/><g transform="rotate(-2 300 800)"><g id="busto"><path d="M 229.44 430 L 370.56 430 L 468 522 L 478.08 800 L 121.92 800 L 132 522 Z" fill="#ffffff"/><g><circle cx="121.92" cy="497.505" r="52.667" fill="#ffffff"/><circle cx="136.166" cy="486.779" r="49.534" fill="#ffffff"/><circle cx="150.413" cy="475.709" r="42.209" fill="#ffffff"/><circle cx="164.659" cy="480.617" r="43.361" fill="#ffffff"/><circle cx="178.906" cy="463.252" r="49.591" fill="#ffffff"/><circle cx="193.152" cy="472.325" r="41.896" fill="#ffffff"/><circle cx="207.398" cy="452.582" r="40.339" fill="#ffffff"/><circle cx="221.645" cy="463.768" r="46.4" fill="#ffffff"/><circle cx="235.891" cy="451.462" r="54.538" fill="#ffffff"/><circle cx="250.138" cy="440.031" r="53.662" fill="#ffffff"/><circle cx="264.384" cy="443.092" r="35.587" fill="#ffffff"/><circle cx="278.63" cy="438.603" r="49.182" fill="#ffffff"/><circle cx="292.877" cy="453.148" r="54.97" fill="#ffffff"/><circle cx="307.123" cy="460.536" r="48.004" fill="#ffffff"/><circle cx="321.37" cy="446.649" r="38.353" fill="#ffffff"/><circle cx="335.616" cy="456.375" r="37.92" fill="#ffffff"/><circle cx="349.862" cy="454.648" r="55.865" fill="#ffffff"/><circle cx="364.109" cy="468.731" r="38.56" fill="#ffffff"/><circle cx="378.355" cy="455.378" r="55.907" fill="#ffffff"/><circle cx="392.602" cy="473.922" r="39.895" fill="#ffffff"/><circle cx="406.848" cy="478.631" r="36.844" fill="#ffffff"/><circle cx="421.094" cy="468.398" r="45.568" fill="#ffffff"/><circle cx="435.341" cy="467.287" r="34.296" fill="#ffffff"/><circle cx="449.587" cy="472.039" r="47.218" fill="#ffffff"/><circle cx="463.834" cy="496.866" r="51.915" fill="#ffffff"/><circle cx="478.08" cy="486.892" r="43.357" fill="#ffffff"/></g><path d="M 240 470 L 360 470 L 340 800 L 260 800 Z" fill="#382c3b"/><rect x="118.56" y="670" width="362.88" height="12" fill="rgba(11,18,32,0.03)"/><rect x="118.56" y="681" width="362.88" height="12" fill="rgba(11,18,32,0.052)"/><rect x="118.56" y="692" width="362.88" height="12" fill="rgba(11,18,32,0.074)"/><rect x="118.56" y="703" width="362.88" height="12" fill="rgba(11,18,32,0.096)"/><rect x="118.56" y="714" width="362.88" height="12" fill="rgba(11,18,32,0.118)"/><rect x="118.56" y="725" width="362.88" height="12" fill="rgba(11,18,32,0.14)"/><rect x="118.56" y="736" width="362.88" height="12" fill="rgba(11,18,32,0.162)"/><rect x="118.56" y="747" width="362.88" height="12" fill="rgba(11,18,32,0.184)"/><rect x="118.56" y="758" width="362.88" height="12" fill="rgba(11,18,32,0.206)"/><rect x="118.56" y="769" width="362.88" height="12" fill="rgba(11,18,32,0.228)"/><rect x="118.56" y="780" width="362.88" height="12" fill="rgba(11,18,32,0.25)"/><rect x="118.56" y="791" width="362.88" height="12" fill="rgba(11,18,32,0.272)"/></g><g id="testa"><path d="M 270 319.094 L 330 319.094 L 336 430 L 264 430 Z" fill="#c4b4a2"/><ellipse cx="300" cy="246" rx="84.6" ry="101.52" fill="#ffffff"/><ellipse cx="384.6" cy="252.091" rx="11.844" ry="18.274" fill="#ffffff"/><ellipse cx="335.532" cy="256.152" rx="50.76" ry="83.246" fill="rgba(143,132,119,0.22)"/></g><g id="capelli"><ellipse cx="300" cy="195.24" rx="82.908" ry="52.79" fill="#ffffff"/><circle cx="223.86" cy="225.696" r="28.764" fill="#ffffff"/><circle cx="223.86" cy="225.696" r="15.228" fill="#97938b"/></g><g id="accessorio"><circle cx="267.852" cy="252.091" r="21.996" fill="rgba(242,233,216,0.14)" stroke="#C9A227" stroke-width="4"/><circle cx="332.148" cy="252.091" r="21.996" fill="rgba(242,233,216,0.14)" stroke="#C9A227" stroke-width="4"/><path d="M 289.848 252.091 L 310.152 252.091" stroke="#C9A227" stroke-width="4"/><path d="M 354.144 252.091 q 42.3 60.912 16.92 142.128" fill="none" stroke="rgba(201,162,39,0.8)" stroke-width="3"/><rect x="462" y="520" width="14" height="280" rx="5" fill="#ffffff"/><path d="M 462 526 q -10 -40 34 -34 q 30 6 22 34 Z" fill="#ffffff"/></g></g></mask><g mask="url(#sagoma-07)"><rect x="0" y="0" width="600" height="800" fill="url(#ombra-07)"/><rect x="0" y="0" width="600" height="800" fill="url(#chiave-07)"/><rect x="0" y="0" width="600" height="800" fill="#F2E9D8" opacity="0.05" filter="url(#grana-07)"/></g></g><rect x="0" y="0" width="560" height="800" filter="url(#grana-07)" opacity="0.07" style="mix-blend-mode:soft-light"/></g><path d="M 50 34 L 510 34 L 526 50 L 526 750 L 510 766 L 50 766 L 34 750 L 34 50 Z" fill="none" stroke="rgba(201,162,39,0.55)" stroke-width="2"/><path d="M 142 692 L 418 692 L 430 704 L 430 742 L 418 754 L 142 754 L 130 742 L 130 704 Z" fill="rgba(11,18,32,0.72)"/><path d="M 142 692 L 418 692 L 430 704 L 430 742 L 418 754 L 142 754 L 130 742 L 130 704 Z" fill="none" stroke="rgba(201,162,39,0.7)" stroke-width="2"/><g><path d="M 170 717 L 179 726 L 170 735 L 161 726 Z" fill="#E0C365"/><path d="M 214 717 L 223 726 L 214 735 L 205 726 Z" fill="#E0C365"/><path d="M 258 717 L 267 726 L 258 735 L 249 726 Z" fill="#E0C365"/><path d="M 302 717 L 311 726 L 302 735 L 293 726 Z" fill="#E0C365"/><path d="M 346 717 L 355 726 L 346 735 L 337 726 Z" fill="#E0C365"/><path d="M 390 717 L 399 726 L 390 735 L 381 726 Z" fill="#E0C365"/><path d="M 170 743 L 179 752 L 170 761 L 161 752 Z" fill="#E0C365"/></g>
</svg>
