<?xml version="1.0" encoding="UTF-8"?>
<!-- MÉRIDIEN — asset generato da tools/generate-assets. Non modificare a mano. -->
<svg xmlns="http://www.w3.org/2000/svg" xmlns:xlink="http://www.w3.org/1999/xlink" width="1920" height="1080" viewBox="0 0 1920 1080" preserveAspectRatio="xMidYMid slice">
<title>La terrazza — livello 2 (principale)</title>
<defs><linearGradient id="terrazza-l2-pavimento" x1="0%" y1="0%" x2="0%" y2="100%"><stop offset="0%" stop-color="#6e6b64"/><stop offset="100%" stop-color="#2d333f"/></linearGradient></defs>
<g><rect x="0" y="720" width="1920" height="360" fill="url(#terrazza-l2-pavimento)"/><g><line x1="0" y1="740" x2="1920" y2="740" stroke="rgba(11,18,32,0.3)" stroke-width="2"/><line x1="0" y1="780" x2="1920" y2="780" stroke="rgba(11,18,32,0.3)" stroke-width="2"/><line x1="0" y1="820" x2="1920" y2="820" stroke="rgba(11,18,32,0.3)" stroke-width="2"/><line x1="0" y1="860" x2="1920" y2="860" stroke="rgba(11,18,32,0.3)" stroke-width="2"/><line x1="0" y1="900" x2="1920" y2="900" stroke="rgba(11,18,32,0.3)" stroke-width="2"/><line x1="0" y1="940" x2="1920" y2="940" stroke="rgba(11,18,32,0.3)" stroke-width="2"/><line x1="0" y1="980" x2="1920" y2="980" stroke="rgba(11,18,32,0.3)" stroke-width="2"/><line x1="0" y1="1020" x2="1920" y2="1020" stroke="rgba(11,18,32,0.3)" stroke-width="2"/><line x1="0" y1="1060" x2="1920" y2="1060" stroke="rgba(11,18,32,0.3)" stroke-width="2"/></g><g><rect x="0" y="640" width="1920" height="12" fill="#C9A227"/><rect x="0" y="644" width="1920" height="3" fill="rgba(224,195,101,0.8)"/><rect x="0" y="762" width="1920" height="8" fill="#796117"/><rect x="-4" y="650" width="8" height="114" fill="#a1821f"/><rect x="69.846" y="650" width="8" height="114" fill="#a1821f"/><rect x="143.692" y="650" width="8" height="114" fill="#a1821f"/><rect x="217.538" y="650" width="8" height="114" fill="#a1821f"/><rect x="291.385" y="650" width="8" height="114" fill="#a1821f"/><rect x="365.231" y="650" width="8" height="114" fill="#a1821f"/><rect x="439.077" y="650" width="8" height="114" fill="#a1821f"/><rect x="512.923" y="650" width="8" height="114" fill="#a1821f"/><rect x="586.769" y="650" width="8" height="114" fill="#a1821f"/><rect x="660.615" y="650" width="8" height="114" fill="#a1821f"/><rect x="734.462" y="650" width="8" height="114" fill="#a1821f"/><rect x="808.308" y="650" width="8" height="114" fill="#a1821f"/><rect x="882.154" y="650" width="8" height="114" fill="#a1821f"/><rect x="956" y="650" width="8" height="114" fill="#a1821f"/><rect x="1029.846" y="650" width="8" height="114" fill="#a1821f"/><rect x="1103.692" y="650" width="8" height="114" fill="#a1821f"/><rect x="1177.538" y="650" width="8" height="114" fill="#a1821f"/><rect x="1251.385" y="650" width="8" height="114" fill="#a1821f"/><rect x="1325.231" y="650" width="8" height="114" fill="#a1821f"/><rect x="1399.077" y="650" width="8" height="114" fill="#a1821f"/><rect x="1472.923" y="650" width="8" height="114" fill="#a1821f"/><rect x="1546.769" y="650" width="8" height="114" fill="#a1821f"/><rect x="1620.615" y="650" width="8" height="114" fill="#a1821f"/><rect x="1694.462" y="650" width="8" height="114" fill="#a1821f"/><rect x="1768.308" y="650" width="8" height="114" fill="#a1821f"/><rect x="1842.154" y="650" width="8" height="114" fill="#a1821f"/><rect x="1916" y="650" width="8" height="114" fill="#a1821f"/></g><g transform="translate(500 800)"><ellipse cx="0" cy="0" rx="130" ry="34" fill="#9a9283"/><rect x="-8" y="0" width="16" height="140" fill="#3c414d"/><ellipse cx="0" cy="140" rx="60" ry="16" fill="#323844"/><path d="M -250 -10 L -160 -10 L -150 130 L -260 130 Z" fill="rgba(133,126,113,0.9)"/><path d="M -256 -140 L -152 -140 L -160 -10 L -250 -10 Z" fill="rgba(148,140,125,0.9)"/></g><g><g transform="translate(460.356 794) scale(0.923)"><path d="M -14 -54 L 14 -54 L 9 -26 Q 0 -18 -9 -26 Z" fill="rgba(242,233,216,0.28)" stroke="rgba(242,233,216,0.45)" stroke-width="1.2"/><rect x="-1.5" y="-26" width="3" height="22" fill="rgba(242,233,216,0.4)"/><ellipse cx="0" cy="-3" rx="11" ry="3.4" fill="rgba(242,233,216,0.32)"/><path d="M -14 -54 L 14 -54 L 12 -44 L -12 -44 Z" fill="rgba(181,38,30,0.5)"/></g><g transform="translate(546.187 794) scale(0.929)"><path d="M -14 -54 L 14 -54 L 9 -26 Q 0 -18 -9 -26 Z" fill="rgba(242,233,216,0.28)" stroke="rgba(242,233,216,0.45)" stroke-width="1.2"/><rect x="-1.5" y="-26" width="3" height="22" fill="rgba(242,233,216,0.4)"/><ellipse cx="0" cy="-3" rx="11" ry="3.4" fill="rgba(242,233,216,0.32)"/><path d="M -14 -54 L 14 -54 L 12 -44 L -12 -44 Z" fill="rgba(181,38,30,0.5)"/></g></g><g><rect x="1612" y="410" width="256" height="410" fill="rgba(201,162,39,0.3)"/><rect x="1620" y="420" width="240" height="400" fill="#311f36"/><rect x="1648.8" y="452" width="182.4" height="144" fill="rgba(11,18,32,0.3)"/><rect x="1648.8" y="628" width="182.4" height="152" fill="rgba(11,18,32,0.3)"/><rect x="1620" y="420" width="24" height="400" fill="rgba(224,195,101,0.75)"/><path d="M 1644 820 L 1684 820 L 1834 1080 L 1604 1080 Z" fill="rgba(224,195,101,0.14)"/><circle cx="1831.2" cy="636" r="6" fill="#E0C365"/></g><g transform="translate(1190 890)"><circle cx="0" cy="0" r="22" fill="#C9A227"/><circle cx="0" cy="0" r="16" fill="#F2E9D8"/><line x1="0" y1="0" x2="0" y2="-10" stroke="#0B1220" stroke-width="2.5"/><line x1="0" y1="0" x2="8" y2="3" stroke="#0B1220" stroke-width="2"/><path d="M -18 -14 q -34 -8 -46 6 l 10 12 q 20 -10 40 -4 Z" fill="#442f4a"/><path d="M 18 14 q 34 8 46 -6 l -10 -12 q -20 10 -40 4 Z" fill="#442f4a"/></g></g>
</svg>
