<?xml version="1.0" encoding="UTF-8"?>
<!-- MÉRIDIEN — asset generato da tools/generate-assets. Non modificare a mano. -->
<svg xmlns="http://www.w3.org/2000/svg" xmlns:xlink="http://www.w3.org/1999/xlink" width="600" height="800" viewBox="0 0 600 800">
<title>Il direttore d&apos;albergo — neutral / calm</title>
<defs><radialGradient id="fondo-03" cx="50%" cy="34%" r="66%"><stop offset="0%" stop-color="#37404f" stop-opacity="0.95"/><stop offset="100%" stop-color="#0B1220" stop-opacity="0.9"/></radialGradient><linearGradient id="vetro-03" x1="0%" y1="0%" x2="0%" y2="100%"><stop offset="0%" stop-color="#F2E9D8" stop-opacity="0.1"/><stop offset="100%" stop-color="#F2E9D8" stop-opacity="0"/></linearGradient><linearGradient id="ombra-03" x1="15%" y1="0%" x2="100%" y2="90%"><stop offset="0%" stop-color="#111C2E" stop-opacity="0"/><stop offset="45%" stop-color="#111C2E" stop-opacity="0.22"/><stop offset="100%" stop-color="#0B1220" stop-opacity="0.6"/></linearGradient><linearGradient id="chiave-03" x1="0%" y1="0%" x2="75%" y2="85%"><stop offset="0%" stop-color="#E0C365" stop-opacity="0.3"/><stop offset="40%" stop-color="#E0C365" stop-opacity="0.06"/><stop offset="100%" stop-color="#E0C365" stop-opacity="0"/></linearGradient><filter id="grana-03" x="0%" y="0%" width="100%" height="100%"><feTurbulence type="fractalNoise" baseFrequency="0.9" numOctaves="4" seed="0.9" result="rumore"/><feColorMatrix type="saturate" values="0" in="rumore" result="grigio"/><feComponentTransfer in="grigio" result="contrasto"><feFuncA type="linear" slope="0.55" intercept="0"/></feComponentTransfer></filter></defs>
<rect x="0" y="0" width="600" height="800" fill="url(#fondo-03)"/><ellipse cx="300" cy="300" rx="250" ry="300" fill="url(#vetro-03)"/><ellipse cx="300" cy="774" rx="168" ry="26" fill="rgba(11,18,32,0.5)"/><g><g id="busto"><path d="M 238.68 430 L 361.32 430 L 446 522 L 454.76 800 L 145.24 800 L 154 522 Z" fill="#232a36"/><path d="M 248 430 L 352 430 L 334 800 L 266 800 Z" fill="#F2E9D8"/><path d="M 238.68 430 L 280 540 L 238 800 L 145.24 800 L 154 522 Z" fill="#191d26"/><path d="M 361.32 430 L 320 540 L 362 800 L 454.76 800 L 446 522 Z" fill="#191d26"/><rect x="142.32" y="670" width="315.36" height="12" fill="rgba(11,18,32,0.03)"/><rect x="142.32" y="681" width="315.36" height="12" fill="rgba(11,18,32,0.052)"/><rect x="142.32" y="692" width="315.36" height="12" fill="rgba(11,18,32,0.074)"/><rect x="142.32" y="703" width="315.36" height="12" fill="rgba(11,18,32,0.096)"/><rect x="142.32" y="714" width="315.36" height="12" fill="rgba(11,18,32,0.118)"/><rect x="142.32" y="725" width="315.36" height="12" fill="rgba(11,18,32,0.14)"/><rect x="142.32" y="736" width="315.36" height="12" fill="rgba(11,18,32,0.162)"/><rect x="142.32" y="747" width="315.36" height="12" fill="rgba(11,18,32,0.184)"/><rect x="142.32" y="758" width="315.36" height="12" fill="rgba(11,18,32,0.206)"/><rect x="142.32" y="769" width="315.36" height="12" fill="rgba(11,18,32,0.228)"/><rect x="142.32" y="780" width="315.36" height="12" fill="rgba(11,18,32,0.25)"/><rect x="142.32" y="791" width="315.36" height="12" fill="rgba(11,18,32,0.272)"/></g><g id="testa"><path d="M 270 320.65 L 330 320.65 L 336 430 L 264 430 Z" fill="#c1ab94"/><ellipse cx="300" cy="246" rx="86.4" ry="103.68" fill="#EBD0B4"/><ellipse cx="386.4" cy="252.221" rx="12.096" ry="18.662" fill="#EBD0B4"/><ellipse cx="336.288" cy="256.368" rx="51.84" ry="85.018" fill="rgba(141,125,108,0.22)"/></g><g id="capelli"><path d="M 213.6 219.043 q 8.64 -89.165 88.128 -89.165 q 77.76 0 86.4 72.576 q -38.016 -31.104 -100.224 -16.589 q -51.84 12.442 -74.304 33.178 Z" fill="#8A8478"/><path d="M 282.72 150.614 q 77.76 10.368 91.584 37.325" fill="none" stroke="#615c54" stroke-width="5"/></g><g id="volto"><path d="M 300 264.662 q 12.096 22.81 1.728 29.03 q -8.64 4.147 -12.096 -3.11" fill="none" stroke="#998775" stroke-width="4.32" stroke-linecap="butt"/><ellipse cx="300" cy="320.65" rx="29.376" ry="14.515" fill="rgba(165,146,126,0.35)"/><path d="M 242.811 222.728 A 25.92 13.478 0 0 1 291.525 222.728" fill="none" stroke="#8A8478" stroke-width="5.76" stroke-linecap="butt" transform="rotate(0 267.168 227.338)"/><path d="M 308.475 222.728 A 25.92 13.478 0 0 1 357.189 222.728" fill="none" stroke="#8A8478" stroke-width="5.76" stroke-linecap="butt" transform="rotate(0 332.832 227.338)"/><g><path d="M 249.888 252.221 A 17.28 10.714 0 0 1 284.448 252.221" fill="#F2E9D8" stroke="#171e2b" stroke-width="3"/><circle cx="267.168" cy="250.493" r="5.875" fill="#171e2b"/></g><g><path d="M 315.552 252.221 A 17.28 10.714 0 0 1 350.112 252.221" fill="#F2E9D8" stroke="#171e2b" stroke-width="3"/><circle cx="332.832" cy="250.493" r="5.875" fill="#171e2b"/></g><path d="M 270.624 299.914 q 29.376 9.988 58.752 0" fill="none" stroke="#8b2e2a" stroke-width="6" stroke-linecap="butt"/></g><g id="accessorio"><path d="M 222 438 q 78 150 156 0" fill="none" stroke="#C9A227" stroke-width="6"/><g transform="translate(300 560)"><circle cx="0" cy="0" r="26" fill="none" stroke="#C9A227" stroke-width="10"/><rect x="-6" y="22" width="12" height="84" fill="#C9A227"/><rect x="0" y="84" width="26" height="10" fill="#C9A227"/><rect x="0" y="62" width="20" height="10" fill="#C9A227"/></g><path d="M 420 560 q 90 20 126 -6 l 6 48 q -60 30 -136 6 Z" fill="#424852"/><ellipse cx="456" cy="578" rx="30" ry="24" fill="#EBD0B4"/><g transform="translate(486 566) rotate(24)"><circle cx="0" cy="0" r="20" fill="none" stroke="#C9A227" stroke-width="9"/><rect x="16" y="-5" width="84" height="10" fill="#C9A227"/><rect x="84" y="5" width="10" height="22" fill="#C9A227"/><rect x="66" y="5" width="10" height="16" fill="#C9A227"/></g></g><g id="maschera-ballo" display="none"><path d="M 211.872 248.074 q 25.92 -43.546 88.128 -43.546 q 62.208 0 88.128 43.546 q -20.736 51.84 -88.128 51.84 q -67.392 0 -88.128 -51.84 Z" fill="#C9A227"/><ellipse cx="267.168" cy="250.147" rx="20.736" ry="15.552" fill="#101724"/><ellipse cx="332.832" cy="250.147" rx="20.736" ry="15.552" fill="#101724"/><path d="M 211.872 248.074 q 25.92 -43.546 88.128 -43.546 q 62.208 0 88.128 43.546" fill="none" stroke="#C9A227" stroke-width="5"/><path d="M 211.872 250.147 l -43.2 16.589 M 388.128 250.147 l 43.2 16.589" stroke="#C9A227" stroke-width="3" fill="none"/></g></g><mask id="sagoma-03" maskUnits="userSpaceOnUse"><rect x="0" y="0" width="600" height="800" fill="#000000"/><g><g id="busto"><path d="M 238.68 430 L 361.32 430 L 446 522 L 454.76 800 L 145.24 800 L 154 522 Z" fill="#ffffff"/><path d="M 248 430 L 352 430 L 334 800 L 266 800 Z" fill="#F2E9D8"/><path d="M 238.68 430 L 280 540 L 238 800 L 145.24 800 L 154 522 Z" fill="#191d26"/><path d="M 361.32 430 L 320 540 L 362 800 L 454.76 800 L 446 522 Z" fill="#191d26"/><rect x="142.32" y="670" width="315.36" height="12" fill="rgba(11,18,32,0.03)"/><rect x="142.32" y="681" width="315.36" height="12" fill="rgba(11,18,32,0.052)"/><rect x="142.32" y="692" width="315.36" height="12" fill="rgba(11,18,32,0.074)"/><rect x="142.32" y="703" width="315.36" height="12" fill="rgba(11,18,32,0.096)"/><rect x="142.32" y="714" width="315.36" height="12" fill="rgba(11,18,32,0.118)"/><rect x="142.32" y="725" width="315.36" height="12" fill="rgba(11,18,32,0.14)"/><rect x="142.32" y="736" width="315.36" height="12" fill="rgba(11,18,32,0.162)"/><rect x="142.32" y="747" width="315.36" height="12" fill="rgba(11,18,32,0.184)"/><rect x="142.32" y="758" width="315.36" height="12" fill="rgba(11,18,32,0.206)"/><rect x="142.32" y="769" width="315.36" height="12" fill="rgba(11,18,32,0.228)"/><rect x="142.32" y="780" width="315.36" height="12" fill="rgba(11,18,32,0.25)"/><rect x="142.32" y="791" width="315.36" height="12" fill="rgba(11,18,32,0.272)"/></g><g id="testa"><path d="M 270 320.65 L 330 320.65 L 336 430 L 264 430 Z" fill="#c1ab94"/><ellipse cx="300" cy="246" rx="86.4" ry="103.68" fill="#ffffff"/><ellipse cx="386.4" cy="252.221" rx="12.096" ry="18.662" fill="#ffffff"/><ellipse cx="336.288" cy="256.368" rx="51.84" ry="85.018" fill="rgba(141,125,108,0.22)"/></g><g id="capelli"><path d="M 213.6 219.043 q 8.64 -89.165 88.128 -89.165 q 77.76 0 86.4 72.576 q -38.016 -31.104 -100.224 -16.589 q -51.84 12.442 -74.304 33.178 Z" fill="#ffffff"/><path d="M 282.72 150.614 q 77.76 10.368 91.584 37.325" fill="none" stroke="#615c54" stroke-width="5"/></g><g id="accessorio"><path d="M 222 438 q 78 150 156 0" fill="none" stroke="#ffffff" stroke-width="6"/><g transform="translate(300 560)"><circle cx="0" cy="0" r="26" fill="none" stroke="#ffffff" stroke-width="10"/><rect x="-6" y="22" width="12" height="84" fill="#ffffff"/><rect x="0" y="84" width="26" height="10" fill="#ffffff"/><rect x="0" y="62" width="20" height="10" fill="#ffffff"/></g><path d="M 420 560 q 90 20 126 -6 l 6 48 q -60 30 -136 6 Z" fill="#ffffff"/><ellipse cx="456" cy="578" rx="30" ry="24" fill="#ffffff"/><g transform="translate(486 566) rotate(24)"><circle cx="0" cy="0" r="20" fill="none" stroke="#ffffff" stroke-width="9"/><rect x="16" y="-5" width="84" height="10" fill="#ffffff"/><rect x="84" y="5" width="10" height="22" fill="#ffffff"/><rect x="66" y="5" width="10" height="16" fill="#ffffff"/></g></g></g></mask><g mask="url(#sagoma-03)"><rect x="0" y="0" width="600" height="800" fill="url(#ombra-03)"/><rect x="0" y="0" width="600" height="800" fill="url(#chiave-03)"/><rect x="0" y="0" width="600" height="800" fill="#F2E9D8" opacity="0.05" filter="url(#grana-03)"/></g>
</svg>
