<?xml version="1.0" encoding="UTF-8"?>
<!-- MÉRIDIEN — asset generato da tools/generate-assets. Non modificare a mano. -->
<svg xmlns="http://www.w3.org/2000/svg" xmlns:xlink="http://www.w3.org/1999/xlink" width="560" height="800" viewBox="0 0 560 800">
<title>Il medico — carta personaggio</title>
<defs><radialGradient id="fondo-06" cx="50%" cy="34%" r="66%"><stop offset="0%" stop-color="#37404f" stop-opacity="0.95"/><stop offset="100%" stop-color="#0B1220" stop-opacity="0.9"/></radialGradient><linearGradient id="vetro-06" x1="0%" y1="0%" x2="0%" y2="100%"><stop offset="0%" stop-color="#F2E9D8" stop-opacity="0.1"/><stop offset="100%" stop-color="#F2E9D8" stop-opacity="0"/></linearGradient><linearGradient id="ombra-06" x1="15%" y1="0%" x2="100%" y2="90%"><stop offset="0%" stop-color="#111C2E" stop-opacity="0"/><stop offset="45%" stop-color="#111C2E" stop-opacity="0.22"/><stop offset="100%" stop-color="#0B1220" stop-opacity="0.6"/></linearGradient><linearGradient id="chiave-06" x1="0%" y1="0%" x2="75%" y2="85%"><stop offset="0%" stop-color="#E0C365" stop-opacity="0.3"/><stop offset="40%" stop-color="#E0C365" stop-opacity="0.06"/><stop offset="100%" stop-color="#E0C365" stop-opacity="0"/></linearGradient><filter id="grana-06" x="0%" y="0%" width="100%" height="100%"><feTurbulence type="fractalNoise" baseFrequency="0.9" numOctaves="4" seed="0.9" result="rumore"/><feColorMatrix type="saturate" values="0" in="rumore" result="grigio"/><feComponentTransfer in="grigio" result="contrasto"><feFuncA type="linear" slope="0.55" intercept="0"/></feComponentTransfer></filter><linearGradient id="carta-06" x1="0%" y1="0%" x2="40%" y2="100%"><stop offset="0%" stop-color="#323c4b"/><stop offset="60%" stop-color="#111C2E"/><stop offset="100%" stop-color="#0B1220"/></linearGradient><linearGradient id="ottone-06" x1="0%" y1="0%" x2="100%" y2="100%"><stop offset="0%" stop-color="#E0C365"/><stop offset="50%" stop-color="#C9A227"/><stop offset="100%" stop-color="#836919"/></linearGradient><radialGradient id="luce-06" cx="50%" cy="30%" r="60%"><stop offset="0%" stop-color="#E0C365" stop-opacity="0.18"/><stop offset="100%" stop-color="#E0C365" stop-opacity="0"/></radialGradient><filter id="grana-06" x="0%" y="0%" width="100%" height="100%"><feTurbulence type="fractalNoise" baseFrequency="0.9" numOctaves="4" seed="17" result="rumore"/><feColorMatrix type="saturate" values="0" in="rumore" result="grigio"/><feComponentTransfer in="grigio" result="contrasto"><feFuncA type="linear" slope="0.55" intercept="0"/></feComponentTransfer></filter><clipPath id="ritaglio-06"><path d="M 48 30 L 512 30 L 530 48 L 530 752 L 512 770 L 48 770 L 30 752 L 30 48 Z"/></clipPath></defs>
<path d="M 40 8 L 520 8 L 552 40 L 552 760 L 520 792 L 40 792 L 8 760 L 8 40 Z" fill="url(#ottone-06)"/><path d="M 44 18 L 516 18 L 542 44 L 542 756 L 516 782 L 44 782 L 18 756 L 18 44 Z" fill="url(#carta-06)"/><g clip-path="url(#ritaglio-06)"><rect x="0" y="0" width="560" height="800" fill="url(#luce-06)"/><g transform="translate(-20 60) scale(0.94)"><g><g id="busto"><path d="M 236.16 430 L 363.84 430 L 452 522 L 461.12 800 L 138.88 800 L 148 522 Z" fill="#442f4a"/><path d="M 236.16 430 L 310 500 L 310 800 L 138.88 800 L 148 522 Z" fill="#302134"/><rect x="144.96" y="690" width="310.08" height="26" fill="#5C7FA3"/><rect x="320" y="684" width="44" height="38" fill="#C9A227"/><path d="M 230 424 L 300 520 L 204 504 Z" fill="#625067"/><path d="M 370 424 L 300 520 L 396 504 Z" fill="#625067"/><rect x="135.84" y="670" width="328.32" height="12" fill="rgba(11,18,32,0.03)"/><rect x="135.84" y="681" width="328.32" height="12" fill="rgba(11,18,32,0.052)"/><rect x="135.84" y="692" width="328.32" height="12" fill="rgba(11,18,32,0.074)"/><rect x="135.84" y="703" width="328.32" height="12" fill="rgba(11,18,32,0.096)"/><rect x="135.84" y="714" width="328.32" height="12" fill="rgba(11,18,32,0.118)"/><rect x="135.84" y="725" width="328.32" height="12" fill="rgba(11,18,32,0.14)"/><rect x="135.84" y="736" width="328.32" height="12" fill="rgba(11,18,32,0.162)"/><rect x="135.84" y="747" width="328.32" height="12" fill="rgba(11,18,32,0.184)"/><rect x="135.84" y="758" width="328.32" height="12" fill="rgba(11,18,32,0.206)"/><rect x="135.84" y="769" width="328.32" height="12" fill="rgba(11,18,32,0.228)"/><rect x="135.84" y="780" width="328.32" height="12" fill="rgba(11,18,32,0.25)"/><rect x="135.84" y="791" width="328.32" height="12" fill="rgba(11,18,32,0.272)"/></g><g id="testa"><path d="M 270 322.205 L 330 322.205 L 336 430 L 264 430 Z" fill="#ba9e83"/><ellipse cx="300" cy="246" rx="88.2" ry="105.84" fill="#E3C1A0"/><ellipse cx="388.2" cy="252.35" rx="12.348" ry="19.051" fill="#E3C1A0"/><ellipse cx="337.044" cy="256.584" rx="52.92" ry="86.789" fill="rgba(136,116,96,0.22)"/></g><g id="capelli"><path d="M 210.036 235.416 q 7.056 -100.548 88.2 -100.548 q 82.908 0 91.728 100.548 q -26.46 -44.453 -97.02 -35.986 q -61.74 6.35 -82.908 35.986 Z" fill="#2A2A2E"/></g><g id="volto"><path d="M 300 265.051 q 12.348 23.285 1.764 29.635 q -8.82 4.234 -12.348 -3.175" fill="none" stroke="#947d68" stroke-width="4.41" stroke-linecap="butt"/><ellipse cx="300" cy="322.205" rx="29.988" ry="14.818" fill="rgba(159,135,112,0.35)"/><path d="M 241.62 222.243 A 26.46 13.759 0 0 1 291.348 222.243" fill="none" stroke="#2A2A2E" stroke-width="5.88" stroke-linecap="butt" transform="rotate(0 266.484 226.949)"/><path d="M 308.652 222.243 A 26.46 13.759 0 0 1 358.38 222.243" fill="none" stroke="#2A2A2E" stroke-width="5.88" stroke-linecap="butt" transform="rotate(0 333.516 226.949)"/><g><path d="M 248.844 252.35 A 17.64 10.937 0 0 1 284.124 252.35" fill="#F2E9D8" stroke="#171e2b" stroke-width="3"/><circle cx="266.484" cy="250.586" r="5.998" fill="#171e2b"/></g><g><path d="M 315.876 252.35 A 17.64 10.937 0 0 1 351.156 252.35" fill="#F2E9D8" stroke="#171e2b" stroke-width="3"/><circle cx="333.516" cy="250.586" r="5.998" fill="#171e2b"/></g><path d="M 270.012 301.037 q 29.988 10.196 59.976 0" fill="none" stroke="#8b2e2a" stroke-width="6" stroke-linecap="butt"/></g><g id="accessorio"><g transform="translate(452 660)"><path d="M 8 0 L 162 0 L 180 18 L 180 112 L 162 130 L 8 130 L -10 112 L -10 18 Z" fill="#37223d"/><path d="M 50 -6 q 40 -46 80 0" fill="none" stroke="#C9A227" stroke-width="9"/><rect x="-10" y="46" width="190" height="14" fill="#C9A227"/><rect x="74" y="40" width="32" height="26" fill="#C9A227"/></g><path d="M 151.04 560 q -16 120 30 180" fill="none" stroke="#291c2c" stroke-width="10"/></g><g id="maschera-ballo" display="none"><path d="M 210.036 248.117 q 26.46 -44.453 89.964 -44.453 q 63.504 0 89.964 44.453 q -21.168 52.92 -89.964 52.92 q -68.796 0 -89.964 -52.92 Z" fill="#5C7FA3"/><ellipse cx="266.484" cy="250.234" rx="21.168" ry="15.876" fill="#101724"/><ellipse cx="333.516" cy="250.234" rx="21.168" ry="15.876" fill="#101724"/><path d="M 210.036 248.117 q 26.46 -44.453 89.964 -44.453 q 63.504 0 89.964 44.453" fill="none" stroke="#C9A227" stroke-width="5"/><path d="M 210.036 250.234 l -44.1 16.934 M 389.964 250.234 l 44.1 16.934" stroke="#C9A227" stroke-width="3" fill="none"/></g></g><mask id="sagoma-06" maskUnits="userSpaceOnUse"><rect x="0" y="0" width="600" height="800" fill="#000000"/><g><g id="busto"><path d="M 236.16 430 L 363.84 430 L 452 522 L 461.12 800 L 138.88 800 L 148 522 Z" fill="#ffffff"/><path d="M 236.16 430 L 310 500 L 310 800 L 138.88 800 L 148 522 Z" fill="#302134"/><rect x="144.96" y="690" width="310.08" height="26" fill="#ffffff"/><rect x="320" y="684" width="44" height="38" fill="#C9A227"/><path d="M 230 424 L 300 520 L 204 504 Z" fill="#625067"/><path d="M 370 424 L 300 520 L 396 504 Z" fill="#625067"/><rect x="135.84" y="670" width="328.32" height="12" fill="rgba(11,18,32,0.03)"/><rect x="135.84" y="681" width="328.32" height="12" fill="rgba(11,18,32,0.052)"/><rect x="135.84" y="692" width="328.32" height="12" fill="rgba(11,18,32,0.074)"/><rect x="135.84" y="703" width="328.32" height="12" fill="rgba(11,18,32,0.096)"/><rect x="135.84" y="714" width="328.32" height="12" fill="rgba(11,18,32,0.118)"/><rect x="135.84" y="725" width="328.32" height="12" fill="rgba(11,18,32,0.14)"/><rect x="135.84" y="736" width="328.32" height="12" fill="rgba(11,18,32,0.162)"/><rect x="135.84" y="747" width="328.32" height="12" fill="rgba(11,18,32,0.184)"/><rect x="135.84" y="758" width="328.32" height="12" fill="rgba(11,18,32,0.206)"/><rect x="135.84" y="769" width="328.32" height="12" fill="rgba(11,18,32,0.228)"/><rect x="135.84" y="780" width="328.32" height="12" fill="rgba(11,18,32,0.25)"/><rect x="135.84" y="791" width="328.32" height="12" fill="rgba(11,18,32,0.272)"/></g><g id="testa"><path d="M 270 322.205 L 330 322.205 L 336 430 L 264 430 Z" fill="#ba9e83"/><ellipse cx="300" cy="246" rx="88.2" ry="105.84" fill="#ffffff"/><ellipse cx="388.2" cy="252.35" rx="12.348" ry="19.051" fill="#ffffff"/><ellipse cx="337.044" cy="256.584" rx="52.92" ry="86.789" fill="rgba(136,116,96,0.22)"/></g><g id="capelli"><path d="M 210.036 235.416 q 7.056 -100.548 88.2 -100.548 q 82.908 0 91.728 100.548 q -26.46 -44.453 -97.02 -35.986 q -61.74 6.35 -82.908 35.986 Z" fill="#ffffff"/></g><g id="accessorio"><g transform="translate(452 660)"><path d="M 8 0 L 162 0 L 180 18 L 180 112 L 162 130 L 8 130 L -10 112 L -10 18 Z" fill="#ffffff"/><path d="M 50 -6 q 40 -46 80 0" fill="none" stroke="#ffffff" stroke-width="9"/><rect x="-10" y="46" width="190" height="14" fill="#ffffff"/><rect x="74" y="40" width="32" height="26" fill="#ffffff"/></g><path d="M 151.04 560 q -16 120 30 180" fill="none" stroke="#ffffff" stroke-width="10"/></g></g></mask><g mask="url(#sagoma-06)"><rect x="0" y="0" width="600" height="800" fill="url(#ombra-06)"/><rect x="0" y="0" width="600" height="800" fill="url(#chiave-06)"/><rect x="0" y="0" width="600" height="800" fill="#F2E9D8" opacity="0.05" filter="url(#grana-06)"/></g></g><rect x="0" y="0" width="560" height="800" filter="url(#grana-06)" opacity="0.07" style="mix-blend-mode:soft-light"/></g><path d="M 50 34 L 510 34 L 526 50 L 526 750 L 510 766 L 50 766 L 34 750 L 34 50 Z" fill="none" stroke="rgba(201,162,39,0.55)" stroke-width="2"/><path d="M 142 692 L 418 692 L 430 704 L 430 742 L 418 754 L 142 754 L 130 742 L 130 704 Z" fill="rgba(11,18,32,0.72)"/><path d="M 142 692 L 418 692 L 430 704 L 430 742 L 418 754 L 142 754 L 130 742 L 130 704 Z" fill="none" stroke="rgba(201,162,39,0.7)" stroke-width="2"/><g><path d="M 170 717 L 179 726 L 170 735 L 161 726 Z" fill="#E0C365"/><path d="M 214 717 L 223 726 L 214 735 L 205 726 Z" fill="#E0C365"/><path d="M 258 717 L 267 726 L 258 735 L 249 726 Z" fill="#E0C365"/><path d="M 302 717 L 311 726 L 302 735 L 293 726 Z" fill="#E0C365"/><path d="M 346 717 L 355 726 L 346 735 L 337 726 Z" fill="#E0C365"/><path d="M 390 717 L 399 726 L 390 735 L 381 726 Z" fill="#E0C365"/></g>
</svg>
