<?xml version="1.0" encoding="UTF-8"?>
<!-- MÉRIDIEN — asset generato da tools/generate-assets. Non modificare a mano. -->
<svg xmlns="http://www.w3.org/2000/svg" xmlns:xlink="http://www.w3.org/1999/xlink" width="600" height="800" viewBox="0 0 600 800">
<title>L&apos;impresario — turn / smug</title>
<defs><radialGradient id="fondo-02" cx="50%" cy="34%" r="66%"><stop offset="0%" stop-color="#37404f" stop-opacity="0.95"/><stop offset="100%" stop-color="#0B1220" stop-opacity="0.9"/></radialGradient><linearGradient id="vetro-02" x1="0%" y1="0%" x2="0%" y2="100%"><stop offset="0%" stop-color="#F2E9D8" stop-opacity="0.1"/><stop offset="100%" stop-color="#F2E9D8" stop-opacity="0"/></linearGradient></defs>
<rect x="0" y="0" width="600" height="800" fill="url(#fondo-02)"/><ellipse cx="300" cy="300" rx="250" ry="300" fill="url(#vetro-02)"/><g transform="rotate(5 300 800) translate(8 0)"><g id="busto"><path d="M 225.24 430 L 374.76 430 L 478 522 L 488.68 800 L 111.32 800 L 122 522 Z" fill="#242e3f"/><path d="M 254 430 L 346 430 L 330 800 L 270 800 Z" fill="#F2E9D8"/><path d="M 225.24 430 L 366 490 L 396 800 L 111.32 800 L 122 522 Z" fill="#19202c"/><circle cx="330" cy="620" r="8" fill="#C9A227"/><circle cx="330" cy="690" r="8" fill="#C9A227"/><circle cx="376" cy="620" r="8" fill="#C9A227"/><circle cx="376" cy="690" r="8" fill="#C9A227"/><rect x="107.76" y="670" width="384.48" height="12" fill="rgba(11,18,32,0.03)"/><rect x="107.76" y="681" width="384.48" height="12" fill="rgba(11,18,32,0.052)"/><rect x="107.76" y="692" width="384.48" height="12" fill="rgba(11,18,32,0.074)"/><rect x="107.76" y="703" width="384.48" height="12" fill="rgba(11,18,32,0.096)"/><rect x="107.76" y="714" width="384.48" height="12" fill="rgba(11,18,32,0.118)"/><rect x="107.76" y="725" width="384.48" height="12" fill="rgba(11,18,32,0.14)"/><rect x="107.76" y="736" width="384.48" height="12" fill="rgba(11,18,32,0.162)"/><rect x="107.76" y="747" width="384.48" height="12" fill="rgba(11,18,32,0.184)"/><rect x="107.76" y="758" width="384.48" height="12" fill="rgba(11,18,32,0.206)"/><rect x="107.76" y="769" width="384.48" height="12" fill="rgba(11,18,32,0.228)"/><rect x="107.76" y="780" width="384.48" height="12" fill="rgba(11,18,32,0.25)"/><rect x="107.76" y="791" width="384.48" height="12" fill="rgba(11,18,32,0.272)"/></g><g id="testa"><path d="M 278 333.091 L 338 333.091 L 342 430 L 270 430 Z" fill="#b28a66"/><ellipse cx="310" cy="246" rx="100.8" ry="120.96" fill="#D9A87C"/><ellipse cx="209.2" cy="253.258" rx="14.112" ry="21.773" fill="#D9A87C"/><ellipse cx="352.336" cy="258.096" rx="60.48" ry="99.187" fill="rgba(130,101,74,0.22)"/></g><g id="capelli"><path d="M 209.2 214.55 q 10.08 -104.026 102.816 -104.026 q 90.72 0 100.8 84.672 q -44.352 -36.288 -116.928 -19.354 q -60.48 14.515 -86.688 38.707 Z" fill="#1B1410"/><path d="M 289.84 134.717 q 90.72 12.096 106.848 43.546" fill="none" stroke="#130e0b" stroke-width="5"/></g><g id="volto"><path d="M 330 267.773 q 14.112 26.611 2.016 33.869 q -10.08 4.838 -14.112 -3.629" fill="none" stroke="#8d6d51" stroke-width="5.04" stroke-linecap="butt"/><ellipse cx="320" cy="333.091" rx="34.272" ry="16.934" fill="rgba(152,118,87,0.35)"/><path d="M 253.28 220.849 A 30.24 15.725 0 0 1 310.112 220.849" fill="none" stroke="#1B1410" stroke-width="6.72" stroke-linecap="butt" transform="rotate(4 281.696 226.227)"/><path d="M 329.888 208.849 A 30.24 15.725 0 0 1 386.72 208.849" fill="none" stroke="#1B1410" stroke-width="6.72" stroke-linecap="butt" transform="rotate(-4 358.304 214.227)"/><g><path d="M 273.804 254.678 A 13.306 6.653 0 0 1 300.314 254.678" fill="none" stroke="#171e2b" stroke-width="4"/><circle cx="287.059" cy="252.258" r="3.992" fill="#171e2b"/></g><g><path d="M 338.221 254.379 A 20.16 10.08 0 0 1 378.387 254.379" fill="none" stroke="#171e2b" stroke-width="4"/><circle cx="358.304" cy="252.258" r="6.048" fill="#171e2b"/></g><path d="M 285.728 308.899 q 34.272 17.136 68.544 -11.652" fill="none" stroke="#8b2e2a" stroke-width="6" stroke-linecap="butt"/></g><g id="accessorio"><rect x="370.4" y="299.48" width="96" height="15" rx="3" fill="#6B4A2A"/><rect x="448.4" y="299.48" width="18" height="15" fill="#a49b8b"/><circle cx="470.4" cy="306.48" r="6" fill="#B5261E"/><path d="M 476.4 300.48 q 40 -60 6 -104 q -30 -40 10 -78" fill="none" stroke="rgba(242,233,216,0.28)" stroke-width="7" stroke-linecap="butt"/></g><g id="maschera-ballo" display="none"><path d="M 217.184 248.419 q 30.24 -50.803 102.816 -50.803 q 72.576 0 102.816 50.803 q -24.192 60.48 -102.816 60.48 q -78.624 0 -102.816 -60.48 Z" fill="#C9A227"/><ellipse cx="281.696" cy="250.838" rx="24.192" ry="18.144" fill="#101724"/><ellipse cx="358.304" cy="250.838" rx="24.192" ry="18.144" fill="#101724"/><path d="M 217.184 248.419 q 30.24 -50.803 102.816 -50.803 q 72.576 0 102.816 50.803" fill="none" stroke="#C9A227" stroke-width="5"/><path d="M 217.184 250.838 l -50.4 19.354 M 422.816 250.838 l 50.4 19.354" stroke="#C9A227" stroke-width="3" fill="none"/></g></g>
</svg>
