<?xml version="1.0" encoding="UTF-8"?>
<!-- MÉRIDIEN — asset generato da tools/generate-assets. Non modificare a mano. -->
<svg xmlns="http://www.w3.org/2000/svg" xmlns:xlink="http://www.w3.org/1999/xlink" width="1920" height="1080" viewBox="0 0 1920 1080" preserveAspectRatio="xMidYMid slice">
<title>La suite 404 — livello 2 (principale)</title>
<defs><linearGradient id="suite-l2-tappeto" x1="0%" y1="0%" x2="0%" y2="100%"><stop offset="0%" stop-color="#58100d"/><stop offset="100%" stop-color="#232a36"/></linearGradient></defs>
<g><rect x="0" y="760" width="1920" height="320" fill="#26172a"/><path d="M 280 800 L 1640 800 L 1780 1080 L 140 1080 Z" fill="url(#suite-l2-tappeto)"/><g><rect x="82" y="290" width="256" height="510" fill="rgba(201,162,39,0.3)"/><rect x="90" y="300" width="240" height="500" fill="#311f36"/><rect x="118.8" y="340" width="182.4" height="180" fill="rgba(11,18,32,0.3)"/><rect x="118.8" y="560" width="182.4" height="190" fill="rgba(11,18,32,0.3)"/><rect x="90" y="300" width="52.8" height="500" fill="rgba(224,195,101,0.75)"/><path d="M 142.8 800 L 182.8 800 L 332.8 1080 L 102.8 1080 Z" fill="rgba(224,195,101,0.14)"/><circle cx="301.2" cy="570" r="6" fill="#E0C365"/></g><g transform="translate(1010 700)"><rect x="0" y="0" width="420" height="26" fill="#56435b"/><rect x="12" y="26" width="396" height="70" fill="#422d48"/><rect x="40" y="42" width="150" height="38" fill="rgba(11,18,32,0.5)"/><circle cx="115" cy="61" r="6" fill="#C9A227"/><rect x="30" y="96" width="16" height="160" fill="#34203a"/><rect x="374" y="96" width="16" height="160" fill="#34203a"/></g><g transform="translate(1280 660)"><rect x="0" y="0" width="150" height="22" fill="#5a475f"/><rect x="10" y="22" width="130" height="130" fill="#3e2844"/><rect x="24" y="40" width="102" height="34" fill="rgba(11,18,32,0.45)"/><rect x="20" y="-26" width="74" height="26" rx="5" fill="#3c414d"/><path d="M 24 -28 q 33 -26 66 0 l -10 8 q -23 -16 -46 0 Z" fill="#464b56"/><path d="M 110 -34 L 140 -34 L 146 -28 L 146 -6 L 140 0 L 110 0 L 104 -6 L 104 -28 Z" fill="#C9A227"/><circle cx="125" cy="-17" r="11" fill="#F2E9D8"/><line x1="125" y1="-17" x2="125" y2="-25" stroke="#0B1220" stroke-width="2"/></g><g transform="translate(880 960) rotate(-8)"><path d="M 0 0 q 10 -34 46 -34 q 24 0 40 20 q 26 8 40 22 q 6 12 -10 14 L 6 24 q -8 -8 -6 -24 Z" fill="#464b56"/><rect x="-2" y="20" width="130" height="8" rx="3" fill="#2d333f"/></g></g>
</svg>
