<?xml version="1.0" encoding="UTF-8"?>
<!-- MÉRIDIEN — asset generato da tools/generate-assets. Non modificare a mano. -->
<svg xmlns="http://www.w3.org/2000/svg" xmlns:xlink="http://www.w3.org/1999/xlink" width="1920" height="1080" viewBox="0 0 1920 1080" preserveAspectRatio="xMidYMid slice">
<title>La suite 404 — livello 0 (fondo)</title>
<defs><linearGradient id="suite-l0-fin-vetro" x1="0%" y1="0%" x2="40%" y2="100%"><stop offset="0%" stop-color="#3c536a"/><stop offset="60%" stop-color="#232a36"/><stop offset="100%" stop-color="#0B1220"/></linearGradient><linearGradient id="suite-l0-carta" x1="0%" y1="0%" x2="0%" y2="100%"><stop offset="0%" stop-color="#311f36"/><stop offset="100%" stop-color="#221525"/></linearGradient></defs>
<g><rect x="0" y="0" width="1920" height="1080" fill="url(#suite-l0-carta)"/><g><rect x="12" y="0" width="3" height="1080" fill="rgba(242,233,216,0.05)"/><rect x="52" y="0" width="3" height="1080" fill="rgba(242,233,216,0.05)"/><rect x="92" y="0" width="3" height="1080" fill="rgba(242,233,216,0.05)"/><rect x="132" y="0" width="3" height="1080" fill="rgba(242,233,216,0.05)"/><rect x="172" y="0" width="3" height="1080" fill="rgba(242,233,216,0.05)"/><rect x="212" y="0" width="3" height="1080" fill="rgba(242,233,216,0.05)"/><rect x="252" y="0" width="3" height="1080" fill="rgba(242,233,216,0.05)"/><rect x="292" y="0" width="3" height="1080" fill="rgba(242,233,216,0.05)"/><rect x="332" y="0" width="3" height="1080" fill="rgba(242,233,216,0.05)"/><rect x="372" y="0" width="3" height="1080" fill="rgba(242,233,216,0.05)"/><rect x="412" y="0" width="3" height="1080" fill="rgba(242,233,216,0.05)"/><rect x="452" y="0" width="3" height="1080" fill="rgba(242,233,216,0.05)"/><rect x="492" y="0" width="3" height="1080" fill="rgba(242,233,216,0.05)"/><rect x="532" y="0" width="3" height="1080" fill="rgba(242,233,216,0.05)"/><rect x="572" y="0" width="3" height="1080" fill="rgba(242,233,216,0.05)"/><rect x="612" y="0" width="3" height="1080" fill="rgba(242,233,216,0.05)"/><rect x="652" y="0" width="3" height="1080" fill="rgba(242,233,216,0.05)"/><rect x="692" y="0" width="3" height="1080" fill="rgba(242,233,216,0.05)"/><rect x="732" y="0" width="3" height="1080" fill="rgba(242,233,216,0.05)"/><rect x="772" y="0" width="3" height="1080" fill="rgba(242,233,216,0.05)"/><rect x="812" y="0" width="3" height="1080" fill="rgba(242,233,216,0.05)"/><rect x="852" y="0" width="3" height="1080" fill="rgba(242,233,216,0.05)"/><rect x="892" y="0" width="3" height="1080" fill="rgba(242,233,216,0.05)"/><rect x="932" y="0" width="3" height="1080" fill="rgba(242,233,216,0.05)"/><rect x="972" y="0" width="3" height="1080" fill="rgba(242,233,216,0.05)"/><rect x="1012" y="0" width="3" height="1080" fill="rgba(242,233,216,0.05)"/><rect x="1052" y="0" width="3" height="1080" fill="rgba(242,233,216,0.05)"/><rect x="1092" y="0" width="3" height="1080" fill="rgba(242,233,216,0.05)"/><rect x="1132" y="0" width="3" height="1080" fill="rgba(242,233,216,0.05)"/><rect x="1172" y="0" width="3" height="1080" fill="rgba(242,233,216,0.05)"/><rect x="1212" y="0" width="3" height="1080" fill="rgba(242,233,216,0.05)"/><rect x="1252" y="0" width="3" height="1080" fill="rgba(242,233,216,0.05)"/><rect x="1292" y="0" width="3" height="1080" fill="rgba(242,233,216,0.05)"/><rect x="1332" y="0" width="3" height="1080" fill="rgba(242,233,216,0.05)"/><rect x="1372" y="0" width="3" height="1080" fill="rgba(242,233,216,0.05)"/><rect x="1412" y="0" width="3" height="1080" fill="rgba(242,233,216,0.05)"/><rect x="1452" y="0" width="3" height="1080" fill="rgba(242,233,216,0.05)"/><rect x="1492" y="0" width="3" height="1080" fill="rgba(242,233,216,0.05)"/><rect x="1532" y="0" width="3" height="1080" fill="rgba(242,233,216,0.05)"/><rect x="1572" y="0" width="3" height="1080" fill="rgba(242,233,216,0.05)"/><rect x="1612" y="0" width="3" height="1080" fill="rgba(242,233,216,0.05)"/><rect x="1652" y="0" width="3" height="1080" fill="rgba(242,233,216,0.05)"/><rect x="1692" y="0" width="3" height="1080" fill="rgba(242,233,216,0.05)"/><rect x="1732" y="0" width="3" height="1080" fill="rgba(242,233,216,0.05)"/><rect x="1772" y="0" width="3" height="1080" fill="rgba(242,233,216,0.05)"/><rect x="1812" y="0" width="3" height="1080" fill="rgba(242,233,216,0.05)"/><rect x="1852" y="0" width="3" height="1080" fill="rgba(242,233,216,0.05)"/><rect x="1892" y="0" width="3" height="1080" fill="rgba(242,233,216,0.05)"/></g><g><rect x="548" y="188" width="444" height="484" fill="#2e1d33"/><rect x="560" y="200" width="420" height="460" fill="url(#suite-l0-fin-vetro)"/><g><path d="M 766.926 405.582 q -4.294 74.948 2.213 149.897" stroke="rgba(242,233,216,0.134)" stroke-width="1.407" fill="none"/><path d="M 876.369 307.316 q 2.523 15.48 -0.84 30.961" stroke="rgba(242,233,216,0.146)" stroke-width="1.605" fill="none"/><path d="M 842.08 211.915 q -4.165 65.356 0.893 130.712" stroke="rgba(242,233,216,0.193)" stroke-width="0.986" fill="none"/><path d="M 725.35 486.697 q 3.602 12.466 2.01 24.931" stroke="rgba(242,233,216,0.101)" stroke-width="1.138" fill="none"/><path d="M 832.788 428.091 q -0.298 12.934 -1.607 25.868" stroke="rgba(242,233,216,0.206)" stroke-width="1.295" fill="none"/><path d="M 711.846 232.354 q 1.446 85.091 0.37 170.181" stroke="rgba(242,233,216,0.199)" stroke-width="1.74" fill="none"/><path d="M 694.705 239.028 q -2.15 73.068 -0.048 146.135" stroke="rgba(242,233,216,0.237)" stroke-width="0.995" fill="none"/><path d="M 937.371 519.216 q 0.91 77.108 1.791 154.217" stroke="rgba(242,233,216,0.141)" stroke-width="1.345" fill="none"/><path d="M 893.581 233.546 q -3.612 44.442 -1.294 88.884" stroke="rgba(242,233,216,0.177)" stroke-width="1.691" fill="none"/><path d="M 814.793 345.168 q -2.875 36.392 -1.724 72.785" stroke="rgba(242,233,216,0.231)" stroke-width="1.543" fill="none"/><path d="M 684.199 365.944 q -2.318 66.219 0.745 132.439" stroke="rgba(242,233,216,0.24)" stroke-width="1.719" fill="none"/><path d="M 609.21 400.954 q 3.559 74.978 0.215 149.956" stroke="rgba(242,233,216,0.235)" stroke-width="0.864" fill="none"/><path d="M 942.4 335.693 q 1.559 86.74 -0.222 173.48" stroke="rgba(242,233,216,0.195)" stroke-width="0.999" fill="none"/><path d="M 645.256 416.55 q -3.459 79.677 -2.545 159.355" stroke="rgba(242,233,216,0.17)" stroke-width="1.675" fill="none"/><path d="M 964.182 505.028 q -4.517 60.19 0.419 120.381" stroke="rgba(242,233,216,0.117)" stroke-width="1.533" fill="none"/><path d="M 779.497 262.4 q 4.792 10.548 2.546 21.096" stroke="rgba(242,233,216,0.121)" stroke-width="1.709" fill="none"/><path d="M 789.689 245.204 q -4.713 44.396 1.157 88.793" stroke="rgba(242,233,216,0.18)" stroke-width="1.729" fill="none"/><path d="M 622.306 231.685 q 4.371 87.645 2.35 175.29" stroke="rgba(242,233,216,0.214)" stroke-width="1.668" fill="none"/><path d="M 665.636 505.339 q 2.487 24.787 -0.791 49.573" stroke="rgba(242,233,216,0.112)" stroke-width="1.631" fill="none"/><path d="M 643.259 504.965 q 2.849 37.408 -2.307 74.817" stroke="rgba(242,233,216,0.222)" stroke-width="1.694" fill="none"/><path d="M 734.139 371.66 q -4.247 27.274 -1.178 54.547" stroke="rgba(242,233,216,0.236)" stroke-width="1.789" fill="none"/><path d="M 856.113 481.439 q -4.902 81.491 0.513 162.983" stroke="rgba(242,233,216,0.201)" stroke-width="1.17" fill="none"/><path d="M 622.58 512.021 q -2.722 24.869 0.314 49.737" stroke="rgba(242,233,216,0.191)" stroke-width="1.327" fill="none"/><path d="M 801.747 260.179 q 3.831 26.968 2.712 53.936" stroke="rgba(242,233,216,0.207)" stroke-width="0.949" fill="none"/><path d="M 638.485 245.496 q 3.03 85.885 0.785 171.77" stroke="rgba(242,233,216,0.17)" stroke-width="1.161" fill="none"/><path d="M 600.228 462.286 q 2.684 49.95 -1.649 99.899" stroke="rgba(242,233,216,0.164)" stroke-width="1.562" fill="none"/><path d="M 784.622 205.031 q -0.113 41.106 0.647 82.211" stroke="rgba(242,233,216,0.11)" stroke-width="1.247" fill="none"/><path d="M 953.436 232.585 q 0.497 13.779 -1.914 27.558" stroke="rgba(242,233,216,0.182)" stroke-width="0.881" fill="none"/><path d="M 721.331 314.45 q -2.178 55.731 -2.354 111.463" stroke="rgba(242,233,216,0.122)" stroke-width="1.412" fill="none"/><path d="M 732.043 451.614 q 4.25 50.977 1.507 101.954" stroke="rgba(242,233,216,0.136)" stroke-width="1.135" fill="none"/><path d="M 636.694 249.054 q -3.358 70.438 -0.361 140.876" stroke="rgba(242,233,216,0.148)" stroke-width="1.298" fill="none"/><path d="M 694.275 479.193 q 0.721 20.867 1.047 41.734" stroke="rgba(242,233,216,0.259)" stroke-width="1.045" fill="none"/><path d="M 722.829 521.27 q 0.669 54.527 0.767 109.053" stroke="rgba(242,233,216,0.121)" stroke-width="1.195" fill="none"/><path d="M 749.883 242.855 q 1.781 26.424 0.011 52.848" stroke="rgba(242,233,216,0.111)" stroke-width="1.693" fill="none"/><path d="M 730.528 510.222 q 1.929 37.559 -1.138 75.117" stroke="rgba(242,233,216,0.231)" stroke-width="1.54" fill="none"/><path d="M 862.642 236.524 q 3.101 13.729 -1.871 27.458" stroke="rgba(242,233,216,0.115)" stroke-width="0.921" fill="none"/><path d="M 968.191 503.61 q 1.065 11.709 -0.778 23.418" stroke="rgba(242,233,216,0.217)" stroke-width="1.324" fill="none"/><path d="M 766.697 315.542 q 2.282 23.161 -1.931 46.322" stroke="rgba(242,233,216,0.134)" stroke-width="1.373" fill="none"/><path d="M 959.063 314.209 q 3.406 71.031 1.564 142.063" stroke="rgba(242,233,216,0.129)" stroke-width="1.504" fill="none"/><path d="M 671.546 264.614 q 1.695 80.726 1.113 161.453" stroke="rgba(242,233,216,0.237)" stroke-width="1.678" fill="none"/><path d="M 788.797 252.643 q -1.136 33.384 -1.089 66.768" stroke="rgba(242,233,216,0.14)" stroke-width="1.039" fill="none"/><path d="M 679.885 303.866 q -0.547 12.993 2.533 25.986" stroke="rgba(242,233,216,0.136)" stroke-width="1.489" fill="none"/><path d="M 714.329 515.405 q -0.924 64.07 -2.081 128.141" stroke="rgba(242,233,216,0.109)" stroke-width="1.523" fill="none"/><path d="M 838.139 239.551 q 3.423 11.549 2.05 23.099" stroke="rgba(242,233,216,0.165)" stroke-width="1.56" fill="none"/><path d="M 597.684 213.383 q 2.116 53.463 1.312 106.925" stroke="rgba(242,233,216,0.139)" stroke-width="0.99" fill="none"/><path d="M 813.786 426.613 q 2.474 87.918 -2.269 175.836" stroke="rgba(242,233,216,0.141)" stroke-width="1.361" fill="none"/></g><rect x="765" y="200" width="10" height="460" fill="#37223d"/><rect x="560" y="411.6" width="420" height="10" fill="#37223d"/><rect x="560" y="200" width="420" height="460" fill="none" stroke="rgba(201,162,39,0.35)" stroke-width="2"/></g></g>
</svg>
