<?xml version="1.0" encoding="UTF-8"?>
<!-- MÉRIDIEN — asset generato da tools/generate-assets. Non modificare a mano. -->
<svg xmlns="http://www.w3.org/2000/svg" xmlns:xlink="http://www.w3.org/1999/xlink" width="1920" height="1080" viewBox="0 0 1920 1080" preserveAspectRatio="xMidYMid slice">
<title>La sala di registrazione — livello 0 (fondo)</title>
<defs><linearGradient id="registrazione-l0-parete" x1="0%" y1="0%" x2="0%" y2="100%"><stop offset="0%" stop-color="#34203a"/><stop offset="100%" stop-color="#201423"/></linearGradient></defs>
<g><rect x="0" y="0" width="1920" height="1080" fill="url(#registrazione-l0-parete)"/><g><g><path d="M 0 0 L 38 26 L 0 52 Z" fill="rgba(11,18,32,0.12)"/><path d="M 76 0 L 114 26 L 76 52 Z" fill="rgba(11,18,32,0.22)"/><path d="M 152 0 L 190 26 L 152 52 Z" fill="rgba(11,18,32,0.12)"/><path d="M 228 0 L 266 26 L 228 52 Z" fill="rgba(11,18,32,0.22)"/><path d="M 304 0 L 342 26 L 304 52 Z" fill="rgba(11,18,32,0.12)"/><path d="M 380 0 L 418 26 L 380 52 Z" fill="rgba(11,18,32,0.22)"/><path d="M 456 0 L 494 26 L 456 52 Z" fill="rgba(11,18,32,0.12)"/><path d="M 532 0 L 570 26 L 532 52 Z" fill="rgba(11,18,32,0.22)"/><path d="M 608 0 L 646 26 L 608 52 Z" fill="rgba(11,18,32,0.12)"/><path d="M 684 0 L 722 26 L 684 52 Z" fill="rgba(11,18,32,0.22)"/><path d="M 760 0 L 798 26 L 760 52 Z" fill="rgba(11,18,32,0.12)"/><path d="M 836 0 L 874 26 L 836 52 Z" fill="rgba(11,18,32,0.22)"/><path d="M 912 0 L 950 26 L 912 52 Z" fill="rgba(11,18,32,0.12)"/><path d="M 988 0 L 1026 26 L 988 52 Z" fill="rgba(11,18,32,0.22)"/><path d="M 1064 0 L 1102 26 L 1064 52 Z" fill="rgba(11,18,32,0.12)"/><path d="M 1140 0 L 1178 26 L 1140 52 Z" fill="rgba(11,18,32,0.22)"/><path d="M 1216 0 L 1254 26 L 1216 52 Z" fill="rgba(11,18,32,0.12)"/><path d="M 1292 0 L 1330 26 L 1292 52 Z" fill="rgba(11,18,32,0.22)"/><path d="M 1368 0 L 1406 26 L 1368 52 Z" fill="rgba(11,18,32,0.12)"/><path d="M 1444 0 L 1482 26 L 1444 52 Z" fill="rgba(11,18,32,0.22)"/><path d="M 1520 0 L 1558 26 L 1520 52 Z" fill="rgba(11,18,32,0.12)"/><path d="M 1596 0 L 1634 26 L 1596 52 Z" fill="rgba(11,18,32,0.22)"/><path d="M 1672 0 L 1710 26 L 1672 52 Z" fill="rgba(11,18,32,0.12)"/><path d="M 1748 0 L 1786 26 L 1748 52 Z" fill="rgba(11,18,32,0.22)"/><path d="M 1824 0 L 1862 26 L 1824 52 Z" fill="rgba(11,18,32,0.12)"/><path d="M 1900 0 L 1938 26 L 1900 52 Z" fill="rgba(11,18,32,0.22)"/></g><g><path d="M 0 52 L 38 78 L 0 104 Z" fill="rgba(11,18,32,0.22)"/><path d="M 76 52 L 114 78 L 76 104 Z" fill="rgba(11,18,32,0.12)"/><path d="M 152 52 L 190 78 L 152 104 Z" fill="rgba(11,18,32,0.22)"/><path d="M 228 52 L 266 78 L 228 104 Z" fill="rgba(11,18,32,0.12)"/><path d="M 304 52 L 342 78 L 304 104 Z" fill="rgba(11,18,32,0.22)"/><path d="M 380 52 L 418 78 L 380 104 Z" fill="rgba(11,18,32,0.12)"/><path d="M 456 52 L 494 78 L 456 104 Z" fill="rgba(11,18,32,0.22)"/><path d="M 532 52 L 570 78 L 532 104 Z" fill="rgba(11,18,32,0.12)"/><path d="M 608 52 L 646 78 L 608 104 Z" fill="rgba(11,18,32,0.22)"/><path d="M 684 52 L 722 78 L 684 104 Z" fill="rgba(11,18,32,0.12)"/><path d="M 760 52 L 798 78 L 760 104 Z" fill="rgba(11,18,32,0.22)"/><path d="M 836 52 L 874 78 L 836 104 Z" fill="rgba(11,18,32,0.12)"/><path d="M 912 52 L 950 78 L 912 104 Z" fill="rgba(11,18,32,0.22)"/><path d="M 988 52 L 1026 78 L 988 104 Z" fill="rgba(11,18,32,0.12)"/><path d="M 1064 52 L 1102 78 L 1064 104 Z" fill="rgba(11,18,32,0.22)"/><path d="M 1140 52 L 1178 78 L 1140 104 Z" fill="rgba(11,18,32,0.12)"/><path d="M 1216 52 L 1254 78 L 1216 104 Z" fill="rgba(11,18,32,0.22)"/><path d="M 1292 52 L 1330 78 L 1292 104 Z" fill="rgba(11,18,32,0.12)"/><path d="M 1368 52 L 1406 78 L 1368 104 Z" fill="rgba(11,18,32,0.22)"/><path d="M 1444 52 L 1482 78 L 1444 104 Z" fill="rgba(11,18,32,0.12)"/><path d="M 1520 52 L 1558 78 L 1520 104 Z" fill="rgba(11,18,32,0.22)"/><path d="M 1596 52 L 1634 78 L 1596 104 Z" fill="rgba(11,18,32,0.12)"/><path d="M 1672 52 L 1710 78 L 1672 104 Z" fill="rgba(11,18,32,0.22)"/><path d="M 1748 52 L 1786 78 L 1748 104 Z" fill="rgba(11,18,32,0.12)"/><path d="M 1824 52 L 1862 78 L 1824 104 Z" fill="rgba(11,18,32,0.22)"/><path d="M 1900 52 L 1938 78 L 1900 104 Z" fill="rgba(11,18,32,0.12)"/></g><g><path d="M 0 104 L 38 130 L 0 156 Z" fill="rgba(11,18,32,0.12)"/><path d="M 76 104 L 114 130 L 76 156 Z" fill="rgba(11,18,32,0.22)"/><path d="M 152 104 L 190 130 L 152 156 Z" fill="rgba(11,18,32,0.12)"/><path d="M 228 104 L 266 130 L 228 156 Z" fill="rgba(11,18,32,0.22)"/><path d="M 304 104 L 342 130 L 304 156 Z" fill="rgba(11,18,32,0.12)"/><path d="M 380 104 L 418 130 L 380 156 Z" fill="rgba(11,18,32,0.22)"/><path d="M 456 104 L 494 130 L 456 156 Z" fill="rgba(11,18,32,0.12)"/><path d="M 532 104 L 570 130 L 532 156 Z" fill="rgba(11,18,32,0.22)"/><path d="M 608 104 L 646 130 L 608 156 Z" fill="rgba(11,18,32,0.12)"/><path d="M 684 104 L 722 130 L 684 156 Z" fill="rgba(11,18,32,0.22)"/><path d="M 760 104 L 798 130 L 760 156 Z" fill="rgba(11,18,32,0.12)"/><path d="M 836 104 L 874 130 L 836 156 Z" fill="rgba(11,18,32,0.22)"/><path d="M 912 104 L 950 130 L 912 156 Z" fill="rgba(11,18,32,0.12)"/><path d="M 988 104 L 1026 130 L 988 156 Z" fill="rgba(11,18,32,0.22)"/><path d="M 1064 104 L 1102 130 L 1064 156 Z" fill="rgba(11,18,32,0.12)"/><path d="M 1140 104 L 1178 130 L 1140 156 Z" fill="rgba(11,18,32,0.22)"/><path d="M 1216 104 L 1254 130 L 1216 156 Z" fill="rgba(11,18,32,0.12)"/><path d="M 1292 104 L 1330 130 L 1292 156 Z" fill="rgba(11,18,32,0.22)"/><path d="M 1368 104 L 1406 130 L 1368 156 Z" fill="rgba(11,18,32,0.12)"/><path d="M 1444 104 L 1482 130 L 1444 156 Z" fill="rgba(11,18,32,0.22)"/><path d="M 1520 104 L 1558 130 L 1520 156 Z" fill="rgba(11,18,32,0.12)"/><path d="M 1596 104 L 1634 130 L 1596 156 Z" fill="rgba(11,18,32,0.22)"/><path d="M 1672 104 L 1710 130 L 1672 156 Z" fill="rgba(11,18,32,0.12)"/><path d="M 1748 104 L 1786 130 L 1748 156 Z" fill="rgba(11,18,32,0.22)"/><path d="M 1824 104 L 1862 130 L 1824 156 Z" fill="rgba(11,18,32,0.12)"/><path d="M 1900 104 L 1938 130 L 1900 156 Z" fill="rgba(11,18,32,0.22)"/></g><g><path d="M 0 156 L 38 182 L 0 208 Z" fill="rgba(11,18,32,0.22)"/><path d="M 76 156 L 114 182 L 76 208 Z" fill="rgba(11,18,32,0.12)"/><path d="M 152 156 L 190 182 L 152 208 Z" fill="rgba(11,18,32,0.22)"/><path d="M 228 156 L 266 182 L 228 208 Z" fill="rgba(11,18,32,0.12)"/><path d="M 304 156 L 342 182 L 304 208 Z" fill="rgba(11,18,32,0.22)"/><path d="M 380 156 L 418 182 L 380 208 Z" fill="rgba(11,18,32,0.12)"/><path d="M 456 156 L 494 182 L 456 208 Z" fill="rgba(11,18,32,0.22)"/><path d="M 532 156 L 570 182 L 532 208 Z" fill="rgba(11,18,32,0.12)"/><path d="M 608 156 L 646 182 L 608 208 Z" fill="rgba(11,18,32,0.22)"/><path d="M 684 156 L 722 182 L 684 208 Z" fill="rgba(11,18,32,0.12)"/><path d="M 760 156 L 798 182 L 760 208 Z" fill="rgba(11,18,32,0.22)"/><path d="M 836 156 L 874 182 L 836 208 Z" fill="rgba(11,18,32,0.12)"/><path d="M 912 156 L 950 182 L 912 208 Z" fill="rgba(11,18,32,0.22)"/><path d="M 988 156 L 1026 182 L 988 208 Z" fill="rgba(11,18,32,0.12)"/><path d="M 1064 156 L 1102 182 L 1064 208 Z" fill="rgba(11,18,32,0.22)"/><path d="M 1140 156 L 1178 182 L 1140 208 Z" fill="rgba(11,18,32,0.12)"/><path d="M 1216 156 L 1254 182 L 1216 208 Z" fill="rgba(11,18,32,0.22)"/><path d="M 1292 156 L 1330 182 L 1292 208 Z" fill="rgba(11,18,32,0.12)"/><path d="M 1368 156 L 1406 182 L 1368 208 Z" fill="rgba(11,18,32,0.22)"/><path d="M 1444 156 L 1482 182 L 1444 208 Z" fill="rgba(11,18,32,0.12)"/><path d="M 1520 156 L 1558 182 L 1520 208 Z" fill="rgba(11,18,32,0.22)"/><path d="M 1596 156 L 1634 182 L 1596 208 Z" fill="rgba(11,18,32,0.12)"/><path d="M 1672 156 L 1710 182 L 1672 208 Z" fill="rgba(11,18,32,0.22)"/><path d="M 1748 156 L 1786 182 L 1748 208 Z" fill="rgba(11,18,32,0.12)"/><path d="M 1824 156 L 1862 182 L 1824 208 Z" fill="rgba(11,18,32,0.22)"/><path d="M 1900 156 L 1938 182 L 1900 208 Z" fill="rgba(11,18,32,0.12)"/></g><g><path d="M 0 208 L 38 234 L 0 260 Z" fill="rgba(11,18,32,0.12)"/><path d="M 76 208 L 114 234 L 76 260 Z" fill="rgba(11,18,32,0.22)"/><path d="M 152 208 L 190 234 L 152 260 Z" fill="rgba(11,18,32,0.12)"/><path d="M 228 208 L 266 234 L 228 260 Z" fill="rgba(11,18,32,0.22)"/><path d="M 304 208 L 342 234 L 304 260 Z" fill="rgba(11,18,32,0.12)"/><path d="M 380 208 L 418 234 L 380 260 Z" fill="rgba(11,18,32,0.22)"/><path d="M 456 208 L 494 234 L 456 260 Z" fill="rgba(11,18,32,0.12)"/><path d="M 532 208 L 570 234 L 532 260 Z" fill="rgba(11,18,32,0.22)"/><path d="M 608 208 L 646 234 L 608 260 Z" fill="rgba(11,18,32,0.12)"/><path d="M 684 208 L 722 234 L 684 260 Z" fill="rgba(11,18,32,0.22)"/><path d="M 760 208 L 798 234 L 760 260 Z" fill="rgba(11,18,32,0.12)"/><path d="M 836 208 L 874 234 L 836 260 Z" fill="rgba(11,18,32,0.22)"/><path d="M 912 208 L 950 234 L 912 260 Z" fill="rgba(11,18,32,0.12)"/><path d="M 988 208 L 1026 234 L 988 260 Z" fill="rgba(11,18,32,0.22)"/><path d="M 1064 208 L 1102 234 L 1064 260 Z" fill="rgba(11,18,32,0.12)"/><path d="M 1140 208 L 1178 234 L 1140 260 Z" fill="rgba(11,18,32,0.22)"/><path d="M 1216 208 L 1254 234 L 1216 260 Z" fill="rgba(11,18,32,0.12)"/><path d="M 1292 208 L 1330 234 L 1292 260 Z" fill="rgba(11,18,32,0.22)"/><path d="M 1368 208 L 1406 234 L 1368 260 Z" fill="rgba(11,18,32,0.12)"/><path d="M 1444 208 L 1482 234 L 1444 260 Z" fill="rgba(11,18,32,0.22)"/><path d="M 1520 208 L 1558 234 L 1520 260 Z" fill="rgba(11,18,32,0.12)"/><path d="M 1596 208 L 1634 234 L 1596 260 Z" fill="rgba(11,18,32,0.22)"/><path d="M 1672 208 L 1710 234 L 1672 260 Z" fill="rgba(11,18,32,0.12)"/><path d="M 1748 208 L 1786 234 L 1748 260 Z" fill="rgba(11,18,32,0.22)"/><path d="M 1824 208 L 1862 234 L 1824 260 Z" fill="rgba(11,18,32,0.12)"/><path d="M 1900 208 L 1938 234 L 1900 260 Z" fill="rgba(11,18,32,0.22)"/></g><g><path d="M 0 260 L 38 286 L 0 312 Z" fill="rgba(11,18,32,0.22)"/><path d="M 76 260 L 114 286 L 76 312 Z" fill="rgba(11,18,32,0.12)"/><path d="M 152 260 L 190 286 L 152 312 Z" fill="rgba(11,18,32,0.22)"/><path d="M 228 260 L 266 286 L 228 312 Z" fill="rgba(11,18,32,0.12)"/><path d="M 304 260 L 342 286 L 304 312 Z" fill="rgba(11,18,32,0.22)"/><path d="M 380 260 L 418 286 L 380 312 Z" fill="rgba(11,18,32,0.12)"/><path d="M 456 260 L 494 286 L 456 312 Z" fill="rgba(11,18,32,0.22)"/><path d="M 532 260 L 570 286 L 532 312 Z" fill="rgba(11,18,32,0.12)"/><path d="M 608 260 L 646 286 L 608 312 Z" fill="rgba(11,18,32,0.22)"/><path d="M 684 260 L 722 286 L 684 312 Z" fill="rgba(11,18,32,0.12)"/><path d="M 760 260 L 798 286 L 760 312 Z" fill="rgba(11,18,32,0.22)"/><path d="M 836 260 L 874 286 L 836 312 Z" fill="rgba(11,18,32,0.12)"/><path d="M 912 260 L 950 286 L 912 312 Z" fill="rgba(11,18,32,0.22)"/><path d="M 988 260 L 1026 286 L 988 312 Z" fill="rgba(11,18,32,0.12)"/><path d="M 1064 260 L 1102 286 L 1064 312 Z" fill="rgba(11,18,32,0.22)"/><path d="M 1140 260 L 1178 286 L 1140 312 Z" fill="rgba(11,18,32,0.12)"/><path d="M 1216 260 L 1254 286 L 1216 312 Z" fill="rgba(11,18,32,0.22)"/><path d="M 1292 260 L 1330 286 L 1292 312 Z" fill="rgba(11,18,32,0.12)"/><path d="M 1368 260 L 1406 286 L 1368 312 Z" fill="rgba(11,18,32,0.22)"/><path d="M 1444 260 L 1482 286 L 1444 312 Z" fill="rgba(11,18,32,0.12)"/><path d="M 1520 260 L 1558 286 L 1520 312 Z" fill="rgba(11,18,32,0.22)"/><path d="M 1596 260 L 1634 286 L 1596 312 Z" fill="rgba(11,18,32,0.12)"/><path d="M 1672 260 L 1710 286 L 1672 312 Z" fill="rgba(11,18,32,0.22)"/><path d="M 1748 260 L 1786 286 L 1748 312 Z" fill="rgba(11,18,32,0.12)"/><path d="M 1824 260 L 1862 286 L 1824 312 Z" fill="rgba(11,18,32,0.22)"/><path d="M 1900 260 L 1938 286 L 1900 312 Z" fill="rgba(11,18,32,0.12)"/></g><g><path d="M 0 312 L 38 338 L 0 364 Z" fill="rgba(11,18,32,0.12)"/><path d="M 76 312 L 114 338 L 76 364 Z" fill="rgba(11,18,32,0.22)"/><path d="M 152 312 L 190 338 L 152 364 Z" fill="rgba(11,18,32,0.12)"/><path d="M 228 312 L 266 338 L 228 364 Z" fill="rgba(11,18,32,0.22)"/><path d="M 304 312 L 342 338 L 304 364 Z" fill="rgba(11,18,32,0.12)"/><path d="M 380 312 L 418 338 L 380 364 Z" fill="rgba(11,18,32,0.22)"/><path d="M 456 312 L 494 338 L 456 364 Z" fill="rgba(11,18,32,0.12)"/><path d="M 532 312 L 570 338 L 532 364 Z" fill="rgba(11,18,32,0.22)"/><path d="M 608 312 L 646 338 L 608 364 Z" fill="rgba(11,18,32,0.12)"/><path d="M 684 312 L 722 338 L 684 364 Z" fill="rgba(11,18,32,0.22)"/><path d="M 760 312 L 798 338 L 760 364 Z" fill="rgba(11,18,32,0.12)"/><path d="M 836 312 L 874 338 L 836 364 Z" fill="rgba(11,18,32,0.22)"/><path d="M 912 312 L 950 338 L 912 364 Z" fill="rgba(11,18,32,0.12)"/><path d="M 988 312 L 1026 338 L 988 364 Z" fill="rgba(11,18,32,0.22)"/><path d="M 1064 312 L 1102 338 L 1064 364 Z" fill="rgba(11,18,32,0.12)"/><path d="M 1140 312 L 1178 338 L 1140 364 Z" fill="rgba(11,18,32,0.22)"/><path d="M 1216 312 L 1254 338 L 1216 364 Z" fill="rgba(11,18,32,0.12)"/><path d="M 1292 312 L 1330 338 L 1292 364 Z" fill="rgba(11,18,32,0.22)"/><path d="M 1368 312 L 1406 338 L 1368 364 Z" fill="rgba(11,18,32,0.12)"/><path d="M 1444 312 L 1482 338 L 1444 364 Z" fill="rgba(11,18,32,0.22)"/><path d="M 1520 312 L 1558 338 L 1520 364 Z" fill="rgba(11,18,32,0.12)"/><path d="M 1596 312 L 1634 338 L 1596 364 Z" fill="rgba(11,18,32,0.22)"/><path d="M 1672 312 L 1710 338 L 1672 364 Z" fill="rgba(11,18,32,0.12)"/><path d="M 1748 312 L 1786 338 L 1748 364 Z" fill="rgba(11,18,32,0.22)"/><path d="M 1824 312 L 1862 338 L 1824 364 Z" fill="rgba(11,18,32,0.12)"/><path d="M 1900 312 L 1938 338 L 1900 364 Z" fill="rgba(11,18,32,0.22)"/></g><g><path d="M 0 364 L 38 390 L 0 416 Z" fill="rgba(11,18,32,0.22)"/><path d="M 76 364 L 114 390 L 76 416 Z" fill="rgba(11,18,32,0.12)"/><path d="M 152 364 L 190 390 L 152 416 Z" fill="rgba(11,18,32,0.22)"/><path d="M 228 364 L 266 390 L 228 416 Z" fill="rgba(11,18,32,0.12)"/><path d="M 304 364 L 342 390 L 304 416 Z" fill="rgba(11,18,32,0.22)"/><path d="M 380 364 L 418 390 L 380 416 Z" fill="rgba(11,18,32,0.12)"/><path d="M 456 364 L 494 390 L 456 416 Z" fill="rgba(11,18,32,0.22)"/><path d="M 532 364 L 570 390 L 532 416 Z" fill="rgba(11,18,32,0.12)"/><path d="M 608 364 L 646 390 L 608 416 Z" fill="rgba(11,18,32,0.22)"/><path d="M 684 364 L 722 390 L 684 416 Z" fill="rgba(11,18,32,0.12)"/><path d="M 760 364 L 798 390 L 760 416 Z" fill="rgba(11,18,32,0.22)"/><path d="M 836 364 L 874 390 L 836 416 Z" fill="rgba(11,18,32,0.12)"/><path d="M 912 364 L 950 390 L 912 416 Z" fill="rgba(11,18,32,0.22)"/><path d="M 988 364 L 1026 390 L 988 416 Z" fill="rgba(11,18,32,0.12)"/><path d="M 1064 364 L 1102 390 L 1064 416 Z" fill="rgba(11,18,32,0.22)"/><path d="M 1140 364 L 1178 390 L 1140 416 Z" fill="rgba(11,18,32,0.12)"/><path d="M 1216 364 L 1254 390 L 1216 416 Z" fill="rgba(11,18,32,0.22)"/><path d="M 1292 364 L 1330 390 L 1292 416 Z" fill="rgba(11,18,32,0.12)"/><path d="M 1368 364 L 1406 390 L 1368 416 Z" fill="rgba(11,18,32,0.22)"/><path d="M 1444 364 L 1482 390 L 1444 416 Z" fill="rgba(11,18,32,0.12)"/><path d="M 1520 364 L 1558 390 L 1520 416 Z" fill="rgba(11,18,32,0.22)"/><path d="M 1596 364 L 1634 390 L 1596 416 Z" fill="rgba(11,18,32,0.12)"/><path d="M 1672 364 L 1710 390 L 1672 416 Z" fill="rgba(11,18,32,0.22)"/><path d="M 1748 364 L 1786 390 L 1748 416 Z" fill="rgba(11,18,32,0.12)"/><path d="M 1824 364 L 1862 390 L 1824 416 Z" fill="rgba(11,18,32,0.22)"/><path d="M 1900 364 L 1938 390 L 1900 416 Z" fill="rgba(11,18,32,0.12)"/></g><g><path d="M 0 416 L 38 442 L 0 468 Z" fill="rgba(11,18,32,0.12)"/><path d="M 76 416 L 114 442 L 76 468 Z" fill="rgba(11,18,32,0.22)"/><path d="M 152 416 L 190 442 L 152 468 Z" fill="rgba(11,18,32,0.12)"/><path d="M 228 416 L 266 442 L 228 468 Z" fill="rgba(11,18,32,0.22)"/><path d="M 304 416 L 342 442 L 304 468 Z" fill="rgba(11,18,32,0.12)"/><path d="M 380 416 L 418 442 L 380 468 Z" fill="rgba(11,18,32,0.22)"/><path d="M 456 416 L 494 442 L 456 468 Z" fill="rgba(11,18,32,0.12)"/><path d="M 532 416 L 570 442 L 532 468 Z" fill="rgba(11,18,32,0.22)"/><path d="M 608 416 L 646 442 L 608 468 Z" fill="rgba(11,18,32,0.12)"/><path d="M 684 416 L 722 442 L 684 468 Z" fill="rgba(11,18,32,0.22)"/><path d="M 760 416 L 798 442 L 760 468 Z" fill="rgba(11,18,32,0.12)"/><path d="M 836 416 L 874 442 L 836 468 Z" fill="rgba(11,18,32,0.22)"/><path d="M 912 416 L 950 442 L 912 468 Z" fill="rgba(11,18,32,0.12)"/><path d="M 988 416 L 1026 442 L 988 468 Z" fill="rgba(11,18,32,0.22)"/><path d="M 1064 416 L 1102 442 L 1064 468 Z" fill="rgba(11,18,32,0.12)"/><path d="M 1140 416 L 1178 442 L 1140 468 Z" fill="rgba(11,18,32,0.22)"/><path d="M 1216 416 L 1254 442 L 1216 468 Z" fill="rgba(11,18,32,0.12)"/><path d="M 1292 416 L 1330 442 L 1292 468 Z" fill="rgba(11,18,32,0.22)"/><path d="M 1368 416 L 1406 442 L 1368 468 Z" fill="rgba(11,18,32,0.12)"/><path d="M 1444 416 L 1482 442 L 1444 468 Z" fill="rgba(11,18,32,0.22)"/><path d="M 1520 416 L 1558 442 L 1520 468 Z" fill="rgba(11,18,32,0.12)"/><path d="M 1596 416 L 1634 442 L 1596 468 Z" fill="rgba(11,18,32,0.22)"/><path d="M 1672 416 L 1710 442 L 1672 468 Z" fill="rgba(11,18,32,0.12)"/><path d="M 1748 416 L 1786 442 L 1748 468 Z" fill="rgba(11,18,32,0.22)"/><path d="M 1824 416 L 1862 442 L 1824 468 Z" fill="rgba(11,18,32,0.12)"/><path d="M 1900 416 L 1938 442 L 1900 468 Z" fill="rgba(11,18,32,0.22)"/></g><g><path d="M 0 468 L 38 494 L 0 520 Z" fill="rgba(11,18,32,0.22)"/><path d="M 76 468 L 114 494 L 76 520 Z" fill="rgba(11,18,32,0.12)"/><path d="M 152 468 L 190 494 L 152 520 Z" fill="rgba(11,18,32,0.22)"/><path d="M 228 468 L 266 494 L 228 520 Z" fill="rgba(11,18,32,0.12)"/><path d="M 304 468 L 342 494 L 304 520 Z" fill="rgba(11,18,32,0.22)"/><path d="M 380 468 L 418 494 L 380 520 Z" fill="rgba(11,18,32,0.12)"/><path d="M 456 468 L 494 494 L 456 520 Z" fill="rgba(11,18,32,0.22)"/><path d="M 532 468 L 570 494 L 532 520 Z" fill="rgba(11,18,32,0.12)"/><path d="M 608 468 L 646 494 L 608 520 Z" fill="rgba(11,18,32,0.22)"/><path d="M 684 468 L 722 494 L 684 520 Z" fill="rgba(11,18,32,0.12)"/><path d="M 760 468 L 798 494 L 760 520 Z" fill="rgba(11,18,32,0.22)"/><path d="M 836 468 L 874 494 L 836 520 Z" fill="rgba(11,18,32,0.12)"/><path d="M 912 468 L 950 494 L 912 520 Z" fill="rgba(11,18,32,0.22)"/><path d="M 988 468 L 1026 494 L 988 520 Z" fill="rgba(11,18,32,0.12)"/><path d="M 1064 468 L 1102 494 L 1064 520 Z" fill="rgba(11,18,32,0.22)"/><path d="M 1140 468 L 1178 494 L 1140 520 Z" fill="rgba(11,18,32,0.12)"/><path d="M 1216 468 L 1254 494 L 1216 520 Z" fill="rgba(11,18,32,0.22)"/><path d="M 1292 468 L 1330 494 L 1292 520 Z" fill="rgba(11,18,32,0.12)"/><path d="M 1368 468 L 1406 494 L 1368 520 Z" fill="rgba(11,18,32,0.22)"/><path d="M 1444 468 L 1482 494 L 1444 520 Z" fill="rgba(11,18,32,0.12)"/><path d="M 1520 468 L 1558 494 L 1520 520 Z" fill="rgba(11,18,32,0.22)"/><path d="M 1596 468 L 1634 494 L 1596 520 Z" fill="rgba(11,18,32,0.12)"/><path d="M 1672 468 L 1710 494 L 1672 520 Z" fill="rgba(11,18,32,0.22)"/><path d="M 1748 468 L 1786 494 L 1748 520 Z" fill="rgba(11,18,32,0.12)"/><path d="M 1824 468 L 1862 494 L 1824 520 Z" fill="rgba(11,18,32,0.22)"/><path d="M 1900 468 L 1938 494 L 1900 520 Z" fill="rgba(11,18,32,0.12)"/></g><g><path d="M 0 520 L 38 546 L 0 572 Z" fill="rgba(11,18,32,0.12)"/><path d="M 76 520 L 114 546 L 76 572 Z" fill="rgba(11,18,32,0.22)"/><path d="M 152 520 L 190 546 L 152 572 Z" fill="rgba(11,18,32,0.12)"/><path d="M 228 520 L 266 546 L 228 572 Z" fill="rgba(11,18,32,0.22)"/><path d="M 304 520 L 342 546 L 304 572 Z" fill="rgba(11,18,32,0.12)"/><path d="M 380 520 L 418 546 L 380 572 Z" fill="rgba(11,18,32,0.22)"/><path d="M 456 520 L 494 546 L 456 572 Z" fill="rgba(11,18,32,0.12)"/><path d="M 532 520 L 570 546 L 532 572 Z" fill="rgba(11,18,32,0.22)"/><path d="M 608 520 L 646 546 L 608 572 Z" fill="rgba(11,18,32,0.12)"/><path d="M 684 520 L 722 546 L 684 572 Z" fill="rgba(11,18,32,0.22)"/><path d="M 760 520 L 798 546 L 760 572 Z" fill="rgba(11,18,32,0.12)"/><path d="M 836 520 L 874 546 L 836 572 Z" fill="rgba(11,18,32,0.22)"/><path d="M 912 520 L 950 546 L 912 572 Z" fill="rgba(11,18,32,0.12)"/><path d="M 988 520 L 1026 546 L 988 572 Z" fill="rgba(11,18,32,0.22)"/><path d="M 1064 520 L 1102 546 L 1064 572 Z" fill="rgba(11,18,32,0.12)"/><path d="M 1140 520 L 1178 546 L 1140 572 Z" fill="rgba(11,18,32,0.22)"/><path d="M 1216 520 L 1254 546 L 1216 572 Z" fill="rgba(11,18,32,0.12)"/><path d="M 1292 520 L 1330 546 L 1292 572 Z" fill="rgba(11,18,32,0.22)"/><path d="M 1368 520 L 1406 546 L 1368 572 Z" fill="rgba(11,18,32,0.12)"/><path d="M 1444 520 L 1482 546 L 1444 572 Z" fill="rgba(11,18,32,0.22)"/><path d="M 1520 520 L 1558 546 L 1520 572 Z" fill="rgba(11,18,32,0.12)"/><path d="M 1596 520 L 1634 546 L 1596 572 Z" fill="rgba(11,18,32,0.22)"/><path d="M 1672 520 L 1710 546 L 1672 572 Z" fill="rgba(11,18,32,0.12)"/><path d="M 1748 520 L 1786 546 L 1748 572 Z" fill="rgba(11,18,32,0.22)"/><path d="M 1824 520 L 1862 546 L 1824 572 Z" fill="rgba(11,18,32,0.12)"/><path d="M 1900 520 L 1938 546 L 1900 572 Z" fill="rgba(11,18,32,0.22)"/></g><g><path d="M 0 572 L 38 598 L 0 624 Z" fill="rgba(11,18,32,0.22)"/><path d="M 76 572 L 114 598 L 76 624 Z" fill="rgba(11,18,32,0.12)"/><path d="M 152 572 L 190 598 L 152 624 Z" fill="rgba(11,18,32,0.22)"/><path d="M 228 572 L 266 598 L 228 624 Z" fill="rgba(11,18,32,0.12)"/><path d="M 304 572 L 342 598 L 304 624 Z" fill="rgba(11,18,32,0.22)"/><path d="M 380 572 L 418 598 L 380 624 Z" fill="rgba(11,18,32,0.12)"/><path d="M 456 572 L 494 598 L 456 624 Z" fill="rgba(11,18,32,0.22)"/><path d="M 532 572 L 570 598 L 532 624 Z" fill="rgba(11,18,32,0.12)"/><path d="M 608 572 L 646 598 L 608 624 Z" fill="rgba(11,18,32,0.22)"/><path d="M 684 572 L 722 598 L 684 624 Z" fill="rgba(11,18,32,0.12)"/><path d="M 760 572 L 798 598 L 760 624 Z" fill="rgba(11,18,32,0.22)"/><path d="M 836 572 L 874 598 L 836 624 Z" fill="rgba(11,18,32,0.12)"/><path d="M 912 572 L 950 598 L 912 624 Z" fill="rgba(11,18,32,0.22)"/><path d="M 988 572 L 1026 598 L 988 624 Z" fill="rgba(11,18,32,0.12)"/><path d="M 1064 572 L 1102 598 L 1064 624 Z" fill="rgba(11,18,32,0.22)"/><path d="M 1140 572 L 1178 598 L 1140 624 Z" fill="rgba(11,18,32,0.12)"/><path d="M 1216 572 L 1254 598 L 1216 624 Z" fill="rgba(11,18,32,0.22)"/><path d="M 1292 572 L 1330 598 L 1292 624 Z" fill="rgba(11,18,32,0.12)"/><path d="M 1368 572 L 1406 598 L 1368 624 Z" fill="rgba(11,18,32,0.22)"/><path d="M 1444 572 L 1482 598 L 1444 624 Z" fill="rgba(11,18,32,0.12)"/><path d="M 1520 572 L 1558 598 L 1520 624 Z" fill="rgba(11,18,32,0.22)"/><path d="M 1596 572 L 1634 598 L 1596 624 Z" fill="rgba(11,18,32,0.12)"/><path d="M 1672 572 L 1710 598 L 1672 624 Z" fill="rgba(11,18,32,0.22)"/><path d="M 1748 572 L 1786 598 L 1748 624 Z" fill="rgba(11,18,32,0.12)"/><path d="M 1824 572 L 1862 598 L 1824 624 Z" fill="rgba(11,18,32,0.22)"/><path d="M 1900 572 L 1938 598 L 1900 624 Z" fill="rgba(11,18,32,0.12)"/></g><g><path d="M 0 624 L 38 650 L 0 676 Z" fill="rgba(11,18,32,0.12)"/><path d="M 76 624 L 114 650 L 76 676 Z" fill="rgba(11,18,32,0.22)"/><path d="M 152 624 L 190 650 L 152 676 Z" fill="rgba(11,18,32,0.12)"/><path d="M 228 624 L 266 650 L 228 676 Z" fill="rgba(11,18,32,0.22)"/><path d="M 304 624 L 342 650 L 304 676 Z" fill="rgba(11,18,32,0.12)"/><path d="M 380 624 L 418 650 L 380 676 Z" fill="rgba(11,18,32,0.22)"/><path d="M 456 624 L 494 650 L 456 676 Z" fill="rgba(11,18,32,0.12)"/><path d="M 532 624 L 570 650 L 532 676 Z" fill="rgba(11,18,32,0.22)"/><path d="M 608 624 L 646 650 L 608 676 Z" fill="rgba(11,18,32,0.12)"/><path d="M 684 624 L 722 650 L 684 676 Z" fill="rgba(11,18,32,0.22)"/><path d="M 760 624 L 798 650 L 760 676 Z" fill="rgba(11,18,32,0.12)"/><path d="M 836 624 L 874 650 L 836 676 Z" fill="rgba(11,18,32,0.22)"/><path d="M 912 624 L 950 650 L 912 676 Z" fill="rgba(11,18,32,0.12)"/><path d="M 988 624 L 1026 650 L 988 676 Z" fill="rgba(11,18,32,0.22)"/><path d="M 1064 624 L 1102 650 L 1064 676 Z" fill="rgba(11,18,32,0.12)"/><path d="M 1140 624 L 1178 650 L 1140 676 Z" fill="rgba(11,18,32,0.22)"/><path d="M 1216 624 L 1254 650 L 1216 676 Z" fill="rgba(11,18,32,0.12)"/><path d="M 1292 624 L 1330 650 L 1292 676 Z" fill="rgba(11,18,32,0.22)"/><path d="M 1368 624 L 1406 650 L 1368 676 Z" fill="rgba(11,18,32,0.12)"/><path d="M 1444 624 L 1482 650 L 1444 676 Z" fill="rgba(11,18,32,0.22)"/><path d="M 1520 624 L 1558 650 L 1520 676 Z" fill="rgba(11,18,32,0.12)"/><path d="M 1596 624 L 1634 650 L 1596 676 Z" fill="rgba(11,18,32,0.22)"/><path d="M 1672 624 L 1710 650 L 1672 676 Z" fill="rgba(11,18,32,0.12)"/><path d="M 1748 624 L 1786 650 L 1748 676 Z" fill="rgba(11,18,32,0.22)"/><path d="M 1824 624 L 1862 650 L 1824 676 Z" fill="rgba(11,18,32,0.12)"/><path d="M 1900 624 L 1938 650 L 1900 676 Z" fill="rgba(11,18,32,0.22)"/></g><g><path d="M 0 676 L 38 702 L 0 728 Z" fill="rgba(11,18,32,0.22)"/><path d="M 76 676 L 114 702 L 76 728 Z" fill="rgba(11,18,32,0.12)"/><path d="M 152 676 L 190 702 L 152 728 Z" fill="rgba(11,18,32,0.22)"/><path d="M 228 676 L 266 702 L 228 728 Z" fill="rgba(11,18,32,0.12)"/><path d="M 304 676 L 342 702 L 304 728 Z" fill="rgba(11,18,32,0.22)"/><path d="M 380 676 L 418 702 L 380 728 Z" fill="rgba(11,18,32,0.12)"/><path d="M 456 676 L 494 702 L 456 728 Z" fill="rgba(11,18,32,0.22)"/><path d="M 532 676 L 570 702 L 532 728 Z" fill="rgba(11,18,32,0.12)"/><path d="M 608 676 L 646 702 L 608 728 Z" fill="rgba(11,18,32,0.22)"/><path d="M 684 676 L 722 702 L 684 728 Z" fill="rgba(11,18,32,0.12)"/><path d="M 760 676 L 798 702 L 760 728 Z" fill="rgba(11,18,32,0.22)"/><path d="M 836 676 L 874 702 L 836 728 Z" fill="rgba(11,18,32,0.12)"/><path d="M 912 676 L 950 702 L 912 728 Z" fill="rgba(11,18,32,0.22)"/><path d="M 988 676 L 1026 702 L 988 728 Z" fill="rgba(11,18,32,0.12)"/><path d="M 1064 676 L 1102 702 L 1064 728 Z" fill="rgba(11,18,32,0.22)"/><path d="M 1140 676 L 1178 702 L 1140 728 Z" fill="rgba(11,18,32,0.12)"/><path d="M 1216 676 L 1254 702 L 1216 728 Z" fill="rgba(11,18,32,0.22)"/><path d="M 1292 676 L 1330 702 L 1292 728 Z" fill="rgba(11,18,32,0.12)"/><path d="M 1368 676 L 1406 702 L 1368 728 Z" fill="rgba(11,18,32,0.22)"/><path d="M 1444 676 L 1482 702 L 1444 728 Z" fill="rgba(11,18,32,0.12)"/><path d="M 1520 676 L 1558 702 L 1520 728 Z" fill="rgba(11,18,32,0.22)"/><path d="M 1596 676 L 1634 702 L 1596 728 Z" fill="rgba(11,18,32,0.12)"/><path d="M 1672 676 L 1710 702 L 1672 728 Z" fill="rgba(11,18,32,0.22)"/><path d="M 1748 676 L 1786 702 L 1748 728 Z" fill="rgba(11,18,32,0.12)"/><path d="M 1824 676 L 1862 702 L 1824 728 Z" fill="rgba(11,18,32,0.22)"/><path d="M 1900 676 L 1938 702 L 1900 728 Z" fill="rgba(11,18,32,0.12)"/></g><g><path d="M 0 728 L 38 754 L 0 780 Z" fill="rgba(11,18,32,0.12)"/><path d="M 76 728 L 114 754 L 76 780 Z" fill="rgba(11,18,32,0.22)"/><path d="M 152 728 L 190 754 L 152 780 Z" fill="rgba(11,18,32,0.12)"/><path d="M 228 728 L 266 754 L 228 780 Z" fill="rgba(11,18,32,0.22)"/><path d="M 304 728 L 342 754 L 304 780 Z" fill="rgba(11,18,32,0.12)"/><path d="M 380 728 L 418 754 L 380 780 Z" fill="rgba(11,18,32,0.22)"/><path d="M 456 728 L 494 754 L 456 780 Z" fill="rgba(11,18,32,0.12)"/><path d="M 532 728 L 570 754 L 532 780 Z" fill="rgba(11,18,32,0.22)"/><path d="M 608 728 L 646 754 L 608 780 Z" fill="rgba(11,18,32,0.12)"/><path d="M 684 728 L 722 754 L 684 780 Z" fill="rgba(11,18,32,0.22)"/><path d="M 760 728 L 798 754 L 760 780 Z" fill="rgba(11,18,32,0.12)"/><path d="M 836 728 L 874 754 L 836 780 Z" fill="rgba(11,18,32,0.22)"/><path d="M 912 728 L 950 754 L 912 780 Z" fill="rgba(11,18,32,0.12)"/><path d="M 988 728 L 1026 754 L 988 780 Z" fill="rgba(11,18,32,0.22)"/><path d="M 1064 728 L 1102 754 L 1064 780 Z" fill="rgba(11,18,32,0.12)"/><path d="M 1140 728 L 1178 754 L 1140 780 Z" fill="rgba(11,18,32,0.22)"/><path d="M 1216 728 L 1254 754 L 1216 780 Z" fill="rgba(11,18,32,0.12)"/><path d="M 1292 728 L 1330 754 L 1292 780 Z" fill="rgba(11,18,32,0.22)"/><path d="M 1368 728 L 1406 754 L 1368 780 Z" fill="rgba(11,18,32,0.12)"/><path d="M 1444 728 L 1482 754 L 1444 780 Z" fill="rgba(11,18,32,0.22)"/><path d="M 1520 728 L 1558 754 L 1520 780 Z" fill="rgba(11,18,32,0.12)"/><path d="M 1596 728 L 1634 754 L 1596 780 Z" fill="rgba(11,18,32,0.22)"/><path d="M 1672 728 L 1710 754 L 1672 780 Z" fill="rgba(11,18,32,0.12)"/><path d="M 1748 728 L 1786 754 L 1748 780 Z" fill="rgba(11,18,32,0.22)"/><path d="M 1824 728 L 1862 754 L 1824 780 Z" fill="rgba(11,18,32,0.12)"/><path d="M 1900 728 L 1938 754 L 1900 780 Z" fill="rgba(11,18,32,0.22)"/></g></g></g>
</svg>
