<?xml version="1.0" encoding="UTF-8"?>
<!-- MÉRIDIEN — asset generato da tools/generate-assets. Non modificare a mano. -->
<svg xmlns="http://www.w3.org/2000/svg" xmlns:xlink="http://www.w3.org/1999/xlink" width="1920" height="1080" viewBox="0 0 1920 1080" preserveAspectRatio="xMidYMid slice">
<title>Il corridoio — livello 1 (medio)</title>
<defs><radialGradient id="corridoio-l1-applique" cx="50%" cy="50%" r="50%"><stop offset="0%" stop-color="#E0C365" stop-opacity="0.5"/><stop offset="50%" stop-color="#E0C365" stop-opacity="0.175"/><stop offset="100%" stop-color="#E0C365" stop-opacity="0"/></radialGradient></defs>
<g><g><path d="M 741.12 482.4 L 485.76 415.2 L 485.76 864.8 L 741.12 797.6 Z" fill="rgba(52,32,58,1)"/><path d="M 1178.88 482.4 L 1434.24 415.2 L 1434.24 864.8 L 1178.88 797.6 Z" fill="rgba(49,30,54,1)"/><path d="M 485.76 415.2 L 157.44 328.8 L 157.44 951.2 L 485.76 864.8 Z" fill="rgba(49,31,54,1)"/><path d="M 1434.24 415.2 L 1762.56 328.8 L 1762.56 951.2 L 1434.24 864.8 Z" fill="rgba(46,28,51,1)"/><path d="M 157.44 328.8 L -243.84 223.2 L -243.84 1056.8 L 157.44 951.2 Z" fill="rgba(46,29,51,1)"/><path d="M 1762.56 328.8 L 2163.84 223.2 L 2163.84 1056.8 L 1762.56 951.2 Z" fill="rgba(43,27,47,1)"/><path d="M -243.84 223.2 L -754.56 88.8 L -754.56 1191.2 L -243.84 1056.8 Z" fill="rgba(44,27,48,1)"/><path d="M 2163.84 223.2 L 2674.56 88.8 L 2674.56 1191.2 L 2163.84 1056.8 Z" fill="rgba(40,25,44,1)"/></g><path d="M 0 0 L 1920 0 L 1920 60 L 1020 400 L 900 400 L 0 60 Z" fill="#1f2532"/><circle cx="580" cy="430" r="130" fill="url(#corridoio-l1-applique)"/><circle cx="1340" cy="430" r="130" fill="url(#corridoio-l1-applique)"/><path d="M 564 400 L 596 400 L 604 408 L 604 466 L 596 474 L 564 474 L 556 466 L 556 408 Z" fill="rgba(201,162,39,0.85)"/><path d="M 1324 400 L 1356 400 L 1364 408 L 1364 466 L 1356 474 L 1324 474 L 1316 466 L 1316 408 Z" fill="rgba(201,162,39,0.85)"/></g>
</svg>
